ISO-10303-21;
HEADER;
FILE_DESCRIPTION (( 'STEP AP214' ),
    '1' );
FILE_NAME ('GWLA.01.STEP',
    '2018-08-09T01:29:20',
    ( '' ),
    ( '' ),
    'SwSTEP 2.0',
    'SolidWorks 2017',
    '' );
FILE_SCHEMA (( 'AUTOMOTIVE_DESIGN' ));
ENDSEC;

DATA;
#1 = PRESENTATION_STYLE_ASSIGNMENT (( #431 ) ) ;
#2 = FILL_AREA_STYLE_COLOUR ( '', #463 ) ;
#3 =( GEOMETRIC_REPRESENTATION_CONTEXT ( 3 ) GLOBAL_UNCERTAINTY_ASSIGNED_CONTEXT ( ( #385 ) ) GLOBAL_UNIT_ASSIGNED_CONTEXT ( ( #136, #346, #744 ) ) REPRESENTATION_CONTEXT ( 'NONE', 'WORKASPACE' ) );
#4 = VECTOR ( 'NONE', #28, 1000.000000000000000 ) ;
#5 = CARTESIAN_POINT ( 'NONE',  ( -1.200000000000000400, 0.8000000000000000400, 0.2600000000000000100 ) ) ;
#6 = ORIENTED_EDGE ( 'NONE', *, *, #845, .F. ) ;
#7 = EDGE_LOOP ( 'NONE', ( #855, #462, #645, #608 ) ) ;
#8 = EDGE_CURVE ( 'NONE', #791, #873, #969, .T. ) ;
#9 = CARTESIAN_POINT ( 'NONE',  ( 0.5000000000000000000, 0.8000000000000000400, -0.2500000000000000000 ) ) ;
#10 = COLOUR_RGB ( '',0.7686274509803920900, 0.7686274509803920900, 0.7686274509803920900 ) ;
#11 = VECTOR ( 'NONE', #813, 1000.000000000000000 ) ;
#12 = SURFACE_SIDE_STYLE ('',( #748 ) ) ;
#13 = FACE_OUTER_BOUND ( 'NONE', #264, .T. ) ;
#14 = EDGE_CURVE ( 'NONE', #753, #61, #953, .T. ) ;
#15 = DIRECTION ( 'NONE',  ( -1.355252715606880500E-016, -1.000000000000000000, 0.0000000000000000000 ) ) ;
#16 = ORIENTED_EDGE ( 'NONE', *, *, #371, .F. ) ;
#17 = CARTESIAN_POINT ( 'NONE',  ( -1.600000000000000500, 0.8000000000000000400, -0.2500000000000000000 ) ) ;
#18 = ORIENTED_EDGE ( 'NONE', *, *, #554, .T. ) ;
#19 = VERTEX_POINT ( 'NONE', #860 ) ;
#20 = AXIS2_PLACEMENT_3D ( 'NONE', #378, #931, #538 ) ;
#21 = VECTOR ( 'NONE', #337, 1000.000000000000000 ) ;
#22 = CARTESIAN_POINT ( 'NONE',  ( 1.200000000000000400, 0.8000000000000000400, 0.2500000000000000000 ) ) ;
#23 = CARTESIAN_POINT ( 'NONE',  ( -1.200000000000000200, 0.8000000000000003800, -0.2600000000000000100 ) ) ;
#24 = LINE ( 'NONE', #194, #760 ) ;
#25 = SURFACE_STYLE_FILL_AREA ( #321 ) ;
#26 = CARTESIAN_POINT ( 'NONE',  ( 0.0000000000000000000, 0.0000000000000000000, 0.2600000000000000100 ) ) ;
#27 = EDGE_CURVE ( 'NONE', #712, #398, #816, .T. ) ;
#28 = DIRECTION ( 'NONE',  ( -0.0000000000000000000, -0.0000000000000000000, -1.000000000000000000 ) ) ;
#29 = VERTEX_POINT ( 'NONE', #173 ) ;
#30 = FILL_AREA_STYLE_COLOUR ( '', #309 ) ;
#31 = VECTOR ( 'NONE', #48, 1000.000000000000000 ) ;
#32 = FILL_AREA_STYLE_COLOUR ( '', #670 ) ;
#33 = LINE ( 'NONE', #492, #289 ) ;
#34 =( LENGTH_UNIT ( ) NAMED_UNIT ( * ) SI_UNIT ( .MILLI., .METRE. ) );
#35 =( NAMED_UNIT ( * ) PLANE_ANGLE_UNIT ( ) SI_UNIT ( $, .RADIAN. ) );
#36 = FACE_OUTER_BOUND ( 'NONE', #156, .T. ) ;
#37 = DIRECTION ( 'NONE',  ( -1.000000000000000000, 0.0000000000000000000, 0.0000000000000000000 ) ) ;
#38 = EDGE_LOOP ( 'NONE', ( #637, #274, #257, #318 ) ) ;
#39 = ORIENTED_EDGE ( 'NONE', *, *, #44, .T. ) ;
#40 =( NAMED_UNIT ( * ) SI_UNIT ( $, .STERADIAN. ) SOLID_ANGLE_UNIT ( ) );
#41 = ORIENTED_EDGE ( 'NONE', *, *, #308, .T. ) ;
#42 = APPLICATION_CONTEXT ( 'automotive_design' ) ;
#43 = DIRECTION ( 'NONE',  ( -1.807003620809174600E-016, 1.000000000000000000, 0.0000000000000000000 ) ) ;
#44 = EDGE_CURVE ( 'NONE', #294, #955, #487, .T. ) ;
#45 =( NAMED_UNIT ( * ) SI_UNIT ( $, .STERADIAN. ) SOLID_ANGLE_UNIT ( ) );
#46 = VECTOR ( 'NONE', #349, 1000.000000000000000 ) ;
#47 = CARTESIAN_POINT ( 'NONE',  ( -0.5000000000000000000, 0.8000000000000001600, -0.2600000000000000100 ) ) ;
#48 = DIRECTION ( 'NONE',  ( -1.000000000000000000, -0.0000000000000000000, -0.0000000000000000000 ) ) ;
#49 = SURFACE_STYLE_FILL_AREA ( #108 ) ;
#50 = DIRECTION ( 'NONE',  ( 1.355252715606880800E-016, 1.000000000000000000, 0.0000000000000000000 ) ) ;
#51 = CARTESIAN_POINT ( 'NONE',  ( 0.5000000000000000000, 0.8000000000000000400, -0.2600000000000000100 ) ) ;
#52 = LINE ( 'NONE', #844, #202 ) ;
#53 = PRESENTATION_LAYER_ASSIGNMENT (  '', '', ( #857 ) ) ;
#54 = CARTESIAN_POINT ( 'NONE',  ( -0.5000000000000000000, 0.8000000000000001600, -0.2600000000000000100 ) ) ;
#55 =( LENGTH_UNIT ( ) NAMED_UNIT ( * ) SI_UNIT ( .MILLI., .METRE. ) );
#56 = PRESENTATION_LAYER_ASSIGNMENT (  '', '', ( #944 ) ) ;
#57 = VERTEX_POINT ( 'NONE', #105 ) ;
#58 = CARTESIAN_POINT ( 'NONE',  ( 1.200000000000000000, -0.8000000000000000400, -0.2600000000000000100 ) ) ;
#59 = PRESENTATION_STYLE_ASSIGNMENT (( #641 ) ) ;
#60 =( GEOMETRIC_REPRESENTATION_CONTEXT ( 3 ) GLOBAL_UNCERTAINTY_ASSIGNED_CONTEXT ( ( #256 ) ) GLOBAL_UNIT_ASSIGNED_CONTEXT ( ( #962, #129, #196 ) ) REPRESENTATION_CONTEXT ( 'NONE', 'WORKASPACE' ) );
#61 = VERTEX_POINT ( 'NONE', #22 ) ;
#62 = FACE_OUTER_BOUND ( 'NONE', #183, .T. ) ;
#63 = PRESENTATION_STYLE_ASSIGNMENT (( #88 ) ) ;
#64 = SURFACE_SIDE_STYLE ('',( #918 ) ) ;
#65 = EDGE_CURVE ( 'NONE', #449, #778, #86, .T. ) ;
#66 = ORIENTED_EDGE ( 'NONE', *, *, #903, .T. ) ;
#67 = CARTESIAN_POINT ( 'NONE',  ( 0.0000000000000000000, 0.0000000000000000000, 0.2500000000000000000 ) ) ;
#68 = ORIENTED_EDGE ( 'NONE', *, *, #110, .T. ) ;
#69 = MECHANICAL_DESIGN_GEOMETRIC_PRESENTATION_REPRESENTATION (  '', ( #954 ), #906 ) ;
#70 = PLANE ( 'NONE',  #133 ) ;
#71 = EDGE_LOOP ( 'NONE', ( #499, #752, #766, #132 ) ) ;
#72 = PRESENTATION_LAYER_ASSIGNMENT (  '', '', ( #203 ) ) ;
#73 = COLOUR_RGB ( '',0.7686274509803920900, 0.7686274509803920900, 0.7686274509803920900 ) ;
#74 =( LENGTH_UNIT ( ) NAMED_UNIT ( * ) SI_UNIT ( .MILLI., .METRE. ) );
#75 = DIRECTION ( 'NONE',  ( -1.000000000000000000, 0.0000000000000000000, 0.0000000000000000000 ) ) ;
#76 = ORIENTED_EDGE ( 'NONE', *, *, #484, .T. ) ;
#77 = EDGE_CURVE ( 'NONE', #144, #505, #664, .T. ) ;
#78 =( LENGTH_UNIT ( ) NAMED_UNIT ( * ) SI_UNIT ( .MILLI., .METRE. ) );
#79 = ADVANCED_FACE ( 'NONE', ( #411 ), #713, .F. ) ;
#80 = LINE ( 'NONE', #197, #589 ) ;
#81 = ORIENTED_EDGE ( 'NONE', *, *, #119, .T. ) ;
#82 = VECTOR ( 'NONE', #627, 1000.000000000000000 ) ;
#83 = SURFACE_STYLE_USAGE ( .BOTH. , #12 ) ;
#84 = VECTOR ( 'NONE', #853, 1000.000000000000000 ) ;
#85 = PRESENTATION_LAYER_ASSIGNMENT (  '', '', ( #380 ) ) ;
#86 = LINE ( 'NONE', #638, #454 ) ;
#87 = ADVANCED_FACE ( 'NONE', ( #732 ), #409, .T. ) ;
#88 = SURFACE_STYLE_USAGE ( .BOTH. , #228 ) ;
#89 = EDGE_LOOP ( 'NONE', ( #606, #665, #534, #869 ) ) ;
#90 = ADVANCED_FACE ( 'NONE', ( #785 ), #801, .F. ) ;
#91 = SURFACE_STYLE_FILL_AREA ( #201 ) ;
#92 = LINE ( 'NONE', #114, #972 ) ;
#93 = EDGE_CURVE ( 'NONE', #572, #145, #139, .T. ) ;
#94 = CARTESIAN_POINT ( 'NONE',  ( 1.200000000000000400, -0.8000000000000000400, 0.2500000000000000000 ) ) ;
#95 = LINE ( 'NONE', #302, #825 ) ;
#96 = VECTOR ( 'NONE', #392, 1000.000000000000000 ) ;
#97 = PRESENTATION_STYLE_ASSIGNMENT (( #607 ) ) ;
#98 = ADVANCED_FACE ( 'NONE', ( #693 ), #876, .F. ) ;
#99 = AXIS2_PLACEMENT_3D ( 'NONE', #111, #493, #418 ) ;
#100 =( GEOMETRIC_REPRESENTATION_CONTEXT ( 3 ) GLOBAL_UNCERTAINTY_ASSIGNED_CONTEXT ( ( #360 ) ) GLOBAL_UNIT_ASSIGNED_CONTEXT ( ( #376, #770, #618 ) ) REPRESENTATION_CONTEXT ( 'NONE', 'WORKASPACE' ) );
#101 = CARTESIAN_POINT ( 'NONE',  ( 1.200000000000000000, -0.8000000000000000400, -0.2600000000000000100 ) ) ;
#102 = SURFACE_STYLE_FILL_AREA ( #325 ) ;
#103 = CARTESIAN_POINT ( 'NONE',  ( 1.200000000000000200, 0.8000000000000000400, -0.2600000000000000100 ) ) ;
#104 = COLOUR_RGB ( '',0.7686274509803920900, 0.7686274509803920900, 0.7686274509803920900 ) ;
#105 = CARTESIAN_POINT ( 'NONE',  ( 1.200000000000000400, -0.8000000000000000400, 0.2600000000000000100 ) ) ;
#106 = PRESENTATION_LAYER_ASSIGNMENT (  '', '', ( #553 ) ) ;
#107 = ORIENTED_EDGE ( 'NONE', *, *, #703, .T. ) ;
#108 = FILL_AREA_STYLE ('',( #571 ) ) ;
#109 =( NAMED_UNIT ( * ) PLANE_ANGLE_UNIT ( ) SI_UNIT ( $, .RADIAN. ) );
#110 = EDGE_CURVE ( 'NONE', #873, #572, #24, .T. ) ;
#111 = CARTESIAN_POINT ( 'NONE',  ( -1.600000000000000500, 0.8000000000000000400, 0.2500000000000000000 ) ) ;
#112 = PLANE ( 'NONE',  #654 ) ;
#113 = COLOUR_RGB ( '',0.1137254901960784300, 0.1137254901960784300, 0.1137254901960784300 ) ;
#114 = CARTESIAN_POINT ( 'NONE',  ( -1.600000000000000500, -0.8000000000000000400, 0.2500000000000000000 ) ) ;
#115 = SURFACE_STYLE_FILL_AREA ( #351 ) ;
#116 = FILL_AREA_STYLE_COLOUR ( '', #417 ) ;
#117 = CARTESIAN_POINT ( 'NONE',  ( 0.5000000000000000000, 0.8000000000000000400, -0.2600000000000000100 ) ) ;
#118 = FACE_OUTER_BOUND ( 'NONE', #7, .T. ) ;
#119 = EDGE_CURVE ( 'NONE', #791, #398, #92, .T. ) ;
#120 = DIRECTION ( 'NONE',  ( 0.0000000000000000000, 0.0000000000000000000, -1.000000000000000000 ) ) ;
#121 = COLOUR_RGB ( '',0.1137254901960784300, 0.1137254901960784300, 0.1137254901960784300 ) ;
#122 = VERTEX_POINT ( 'NONE', #653 ) ;
#123 = APPLICATION_CONTEXT ( 'automotive_design' ) ;
#124 = EDGE_LOOP ( 'NONE', ( #41, #356, #210, #805 ) ) ;
#125 = ORIENTED_EDGE ( 'NONE', *, *, #162, .F. ) ;
#126 =( NAMED_UNIT ( * ) SI_UNIT ( $, .STERADIAN. ) SOLID_ANGLE_UNIT ( ) );
#127 = UNCERTAINTY_MEASURE_WITH_UNIT (LENGTH_MEASURE( 1.000000000000000100E-005 ), #722, 'distance_accuracy_value', 'NONE');
#128 = CARTESIAN_POINT ( 'NONE',  ( -1.200000000000000400, 0.8000000000000000400, 0.2600000000000000100 ) ) ;
#129 =( NAMED_UNIT ( * ) PLANE_ANGLE_UNIT ( ) SI_UNIT ( $, .RADIAN. ) );
#130 = LINE ( 'NONE', #51, #352 ) ;
#131 = COLOUR_RGB ( '',0.1137254901960784300, 0.1137254901960784300, 0.1137254901960784300 ) ;
#132 = ORIENTED_EDGE ( 'NONE', *, *, #603, .F. ) ;
#133 = AXIS2_PLACEMENT_3D ( 'NONE', #448, #229, #142 ) ;
#134 = ORIENTED_EDGE ( 'NONE', *, *, #740, .T. ) ;
#135 = PLANE ( 'NONE',  #425 ) ;
#136 =( LENGTH_UNIT ( ) NAMED_UNIT ( * ) SI_UNIT ( .MILLI., .METRE. ) );
#137 = PRESENTATION_LAYER_ASSIGNMENT (  '', '', ( #243 ) ) ;
#138 = VECTOR ( 'NONE', #500, 1000.000000000000000 ) ;
#139 = LINE ( 'NONE', #199, #364 ) ;
#140 = ORIENTED_EDGE ( 'NONE', *, *, #947, .F. ) ;
#141 = VECTOR ( 'NONE', #639, 1000.000000000000000 ) ;
#142 = DIRECTION ( 'NONE',  ( -1.000000000000000000, 0.0000000000000000000, -0.0000000000000000000 ) ) ;
#143 = EDGE_CURVE ( 'NONE', #960, #790, #422, .T. ) ;
#144 = VERTEX_POINT ( 'NONE', #870 ) ;
#145 = VERTEX_POINT ( 'NONE', #408 ) ;
#146 = CARTESIAN_POINT ( 'NONE',  ( -0.5000000000000003300, 0.5999999999999998700, 0.2600000000000000100 ) ) ;
#147 = PLANE ( 'NONE',  #344 ) ;
#148 =( GEOMETRIC_REPRESENTATION_CONTEXT ( 3 ) GLOBAL_UNCERTAINTY_ASSIGNED_CONTEXT ( ( #591 ) ) GLOBAL_UNIT_ASSIGNED_CONTEXT ( ( #204, #212, #741 ) ) REPRESENTATION_CONTEXT ( 'NONE', 'WORKASPACE' ) );
#149 = DIRECTION ( 'NONE',  ( 1.355252715606880500E-016, 1.000000000000000000, -0.0000000000000000000 ) ) ;
#150 = VECTOR ( 'NONE', #650, 1000.000000000000000 ) ;
#151 = CARTESIAN_POINT ( 'NONE',  ( -0.5000000000000003300, -0.5999999999999998700, 0.2500000000000000000 ) ) ;
#152 =( GEOMETRIC_REPRESENTATION_CONTEXT ( 3 ) GLOBAL_UNCERTAINTY_ASSIGNED_CONTEXT ( ( #910 ) ) GLOBAL_UNIT_ASSIGNED_CONTEXT ( ( #519, #911, #457 ) ) REPRESENTATION_CONTEXT ( 'NONE', 'WORKASPACE' ) );
#153 = FILL_AREA_STYLE ('',( #464 ) ) ;
#154 = DIRECTION ( 'NONE',  ( -1.355252715606880800E-016, -1.000000000000000000, 0.0000000000000000000 ) ) ;
#155 = UNCERTAINTY_MEASURE_WITH_UNIT (LENGTH_MEASURE( 1.000000000000000100E-005 ), #282, 'distance_accuracy_value', 'NONE');
#156 = EDGE_LOOP ( 'NONE', ( #595, #666, #6, #847 ) ) ;
#157 = ORIENTED_EDGE ( 'NONE', *, *, #777, .F. ) ;
#158 = CARTESIAN_POINT ( 'NONE',  ( -0.5000000000000003300, -0.5999999999999998700, 0.2600000000000000100 ) ) ;
#159 = ADVANCED_FACE ( 'NONE', ( #438 ), #563, .T. ) ;
#160 = DIRECTION ( 'NONE',  ( -1.000000000000000000, 0.0000000000000000000, -0.0000000000000000000 ) ) ;
#161 = CARTESIAN_POINT ( 'NONE',  ( 1.200000000000000200, 0.8000000000000000400, -0.2500000000000000000 ) ) ;
#162 = EDGE_CURVE ( 'NONE', #29, #609, #192, .T. ) ;
#163 = PRESENTATION_STYLE_ASSIGNMENT (( #971 ) ) ;
#164 = CARTESIAN_POINT ( 'NONE',  ( -1.600000000000000500, -0.8000000000000000400, -0.2500000000000000000 ) ) ;
#165 = ORIENTED_EDGE ( 'NONE', *, *, #898, .T. ) ;
#166 = FILL_AREA_STYLE ('',( #470 ) ) ;
#167 = FACE_OUTER_BOUND ( 'NONE', #177, .T. ) ;
#168 = COLOUR_RGB ( '',0.7686274509803920900, 0.7686274509803920900, 0.7686274509803920900 ) ;
#169 = VECTOR ( 'NONE', #747, 1000.000000000000000 ) ;
#170 = MANIFOLD_SOLID_BREP ( '¶ñ®Æ-¦ùªø4', #774 ) ;
#171 = ADVANCED_FACE ( 'NONE', ( #943 ), #824, .F. ) ;
#172 = ORIENTED_EDGE ( 'NONE', *, *, #198, .F. ) ;
#173 = CARTESIAN_POINT ( 'NONE',  ( -0.5000000000000002200, -0.7999999999999999300, -0.2600000000000000100 ) ) ;
#174 =( GEOMETRIC_REPRESENTATION_CONTEXT ( 3 ) GLOBAL_UNCERTAINTY_ASSIGNED_CONTEXT ( ( #950 ) ) GLOBAL_UNIT_ASSIGNED_CONTEXT ( ( #261, #652, #334 ) ) REPRESENTATION_CONTEXT ( 'NONE', 'WORKASPACE' ) );
#175 = STYLED_ITEM ( 'NONE', ( #707 ), #613 ) ;
#176 =( NAMED_UNIT ( * ) SI_UNIT ( $, .STERADIAN. ) SOLID_ANGLE_UNIT ( ) );
#177 = EDGE_LOOP ( 'NONE', ( #928, #335, #324, #547 ) ) ;
#178 = VECTOR ( 'NONE', #784, 1000.000000000000000 ) ;
#179 = CARTESIAN_POINT ( 'NONE',  ( 1.200000000000000400, 0.8000000000000000400, 0.2500000000000000000 ) ) ;
#180 = PRODUCT_DEFINITION_FORMATION_WITH_SPECIFIED_SOURCE ( 'ANY', '', #866, .NOT_KNOWN. ) ;
#181 = COLOUR_RGB ( '',0.1137254901960784300, 0.1137254901960784300, 0.1137254901960784300 ) ;
#182 = EDGE_CURVE ( 'NONE', #505, #570, #795, .T. ) ;
#183 = EDGE_LOOP ( 'NONE', ( #861, #802, #750, #107 ) ) ;
#184 = ORIENTED_EDGE ( 'NONE', *, *, #93, .T. ) ;
#185 = CARTESIAN_POINT ( 'NONE',  ( -1.100000000000000300, -0.5999999999999999800, 0.2600000000000000100 ) ) ;
#186 = SURFACE_STYLE_USAGE ( .BOTH. , #948 ) ;
#187 = STYLED_ITEM ( 'NONE', ( #922 ), #629 ) ;
#188 = ADVANCED_BREP_SHAPE_REPRESENTATION ( 'GWLA.01', ( #170, #394 ), #600 ) ;
#189 = LINE ( 'NONE', #663, #46 ) ;
#190 = SURFACE_SIDE_STYLE ('',( #284 ) ) ;
#191 = CARTESIAN_POINT ( 'NONE',  ( -1.600000000000000500, -0.8000000000000000400, 0.2500000000000000000 ) ) ;
#192 = LINE ( 'NONE', #54, #717 ) ;
#193 = ORIENTED_EDGE ( 'NONE', *, *, #475, .F. ) ;
#194 = CARTESIAN_POINT ( 'NONE',  ( -1.200000000000000400, 0.8000000000000000400, 0.2600000000000000100 ) ) ;
#195 = ORIENTED_EDGE ( 'NONE', *, *, #231, .T. ) ;
#196 =( NAMED_UNIT ( * ) SI_UNIT ( $, .STERADIAN. ) SOLID_ANGLE_UNIT ( ) );
#197 = CARTESIAN_POINT ( 'NONE',  ( -1.600000000000000500, 0.8000000000000000400, 0.2500000000000000000 ) ) ;
#198 = EDGE_CURVE ( 'NONE', #242, #688, #189, .T. ) ;
#199 = CARTESIAN_POINT ( 'NONE',  ( -1.600000000000000500, 0.8000000000000000400, 0.2600000000000000100 ) ) ;
#200 = APPLICATION_PROTOCOL_DEFINITION ( 'draft international standard', 'automotive_design', 1998, #123 ) ;
#201 = FILL_AREA_STYLE ('',( #32 ) ) ;
#202 = VECTOR ( 'NONE', #310, 1000.000000000000000 ) ;
#203 = STYLED_ITEM ( 'NONE', ( #1 ), #170 ) ;
#204 =( LENGTH_UNIT ( ) NAMED_UNIT ( * ) SI_UNIT ( .MILLI., .METRE. ) );
#205 = VECTOR ( 'NONE', #354, 1000.000000000000000 ) ;
#206 = CARTESIAN_POINT ( 'NONE',  ( -1.100000000000000300, 0.5999999999999999800, 0.2600000000000000100 ) ) ;
#207 = MECHANICAL_DESIGN_GEOMETRIC_PRESENTATION_REPRESENTATION (  '', ( #175 ), #511 ) ;
#208 = ORIENTED_EDGE ( 'NONE', *, *, #14, .F. ) ;
#209 = SURFACE_STYLE_USAGE ( .BOTH. , #64 ) ;
#210 = ORIENTED_EDGE ( 'NONE', *, *, #182, .T. ) ;
#211 = PRODUCT_CONTEXT ( 'NONE', #42, 'mechanical' ) ;
#212 =( NAMED_UNIT ( * ) PLANE_ANGLE_UNIT ( ) SI_UNIT ( $, .RADIAN. ) );
#213 = LINE ( 'NONE', #117, #396 ) ;
#214 =( NAMED_UNIT ( * ) PLANE_ANGLE_UNIT ( ) SI_UNIT ( $, .RADIAN. ) );
#215 = LINE ( 'NONE', #506, #11 ) ;
#216 = FILL_AREA_STYLE ('',( #657 ) ) ;
#217 = EDGE_CURVE ( 'NONE', #712, #675, #628, .T. ) ;
#218 = CARTESIAN_POINT ( 'NONE',  ( 1.600000000000000100, 0.8000000000000000400, -0.2600000000000000100 ) ) ;
#219 = ORIENTED_EDGE ( 'NONE', *, *, #93, .F. ) ;
#220 = ORIENTED_EDGE ( 'NONE', *, *, #937, .F. ) ;
#221 = CARTESIAN_POINT ( 'NONE',  ( -1.600000000000000500, 0.8000000000000000400, -0.2500000000000000000 ) ) ;
#222 = AXIS2_PLACEMENT_3D ( 'NONE', #798, #874, #50 ) ;
#223 = DIRECTION ( 'NONE',  ( -1.807003620809174600E-016, -1.000000000000000000, 0.0000000000000000000 ) ) ;
#224 = FACE_OUTER_BOUND ( 'NONE', #316, .T. ) ;
#225 = PRESENTATION_LAYER_ASSIGNMENT (  '', '', ( #175 ) ) ;
#226 =( NAMED_UNIT ( * ) PLANE_ANGLE_UNIT ( ) SI_UNIT ( $, .RADIAN. ) );
#227 = FACE_OUTER_BOUND ( 'NONE', #252, .T. ) ;
#228 = SURFACE_SIDE_STYLE ('',( #800 ) ) ;
#229 = DIRECTION ( 'NONE',  ( 0.0000000000000000000, 0.0000000000000000000, -1.000000000000000000 ) ) ;
#230 = UNCERTAINTY_MEASURE_WITH_UNIT (LENGTH_MEASURE( 1.000000000000000100E-005 ), #268, 'distance_accuracy_value', 'NONE');
#231 = EDGE_CURVE ( 'NONE', #888, #688, #810, .T. ) ;
#232 = EDGE_LOOP ( 'NONE', ( #602, #662, #269, #306 ) ) ;
#233 = CARTESIAN_POINT ( 'NONE',  ( -1.100000000000000300, -0.5999999999999999800, 0.2500000000000000000 ) ) ;
#234 = LINE ( 'NONE', #958, #731 ) ;
#235 = PLANE ( 'NONE',  #236 ) ;
#236 = AXIS2_PLACEMENT_3D ( 'NONE', #146, #848, #917 ) ;
#237 = SURFACE_SIDE_STYLE ('',( #735 ) ) ;
#238 = VECTOR ( 'NONE', #287, 1000.000000000000000 ) ;
#239 = CARTESIAN_POINT ( 'NONE',  ( 0.5000000000000000000, 0.8000000000000000400, -0.2600000000000000100 ) ) ;
#240 = ADVANCED_FACE ( 'NONE', ( #224 ), #135, .F. ) ;
#241 = ORIENTED_EDGE ( 'NONE', *, *, #949, .F. ) ;
#242 = VERTEX_POINT ( 'NONE', #890 ) ;
#243 = STYLED_ITEM ( 'NONE', ( #692 ), #846 ) ;
#244 = DIRECTION ( 'NONE',  ( 1.355252715606880500E-016, 1.000000000000000000, -0.0000000000000000000 ) ) ;
#245 = ORIENTED_EDGE ( 'NONE', *, *, #815, .T. ) ;
#246 = SURFACE_SIDE_STYLE ('',( #25 ) ) ;
#247 = EDGE_CURVE ( 'NONE', #505, #449, #345, .T. ) ;
#248 = ADVANCED_FACE ( 'NONE', ( #745, #789 ), #278, .F. ) ;
#249 = PRESENTATION_STYLE_ASSIGNMENT (( #552 ) ) ;
#250 = FACE_OUTER_BOUND ( 'NONE', #768, .T. ) ;
#251 = AXIS2_PLACEMENT_3D ( 'NONE', #578, #286, #667 ) ;
#252 = EDGE_LOOP ( 'NONE', ( #76, #525, #172, #347 ) ) ;
#253 = DIRECTION ( 'NONE',  ( -0.0000000000000000000, 0.0000000000000000000, -1.000000000000000000 ) ) ;
#254 = PRESENTATION_LAYER_ASSIGNMENT (  '', '', ( #694 ) ) ;
#255 = DIRECTION ( 'NONE',  ( -1.000000000000000000, 1.807003620809174100E-016, -0.0000000000000000000 ) ) ;
#256 = UNCERTAINTY_MEASURE_WITH_UNIT (LENGTH_MEASURE( 1.000000000000000100E-005 ), #962, 'distance_accuracy_value', 'NONE');
#257 = ORIENTED_EDGE ( 'NONE', *, *, #518, .F. ) ;
#258 = COLOUR_RGB ( '',0.7686274509803920900, 0.7686274509803920900, 0.7686274509803920900 ) ;
#259 = FILL_AREA_STYLE ('',( #541 ) ) ;
#260 = LINE ( 'NONE', #915, #283 ) ;
#261 =( LENGTH_UNIT ( ) NAMED_UNIT ( * ) SI_UNIT ( .MILLI., .METRE. ) );
#262 = DIRECTION ( 'NONE',  ( 0.0000000000000000000, 0.0000000000000000000, -1.000000000000000000 ) ) ;
#263 = ORIENTED_EDGE ( 'NONE', *, *, #703, .F. ) ;
#264 = EDGE_LOOP ( 'NONE', ( #446, #901, #593, #909 ) ) ;
#265 = EDGE_CURVE ( 'NONE', #559, #242, #938, .T. ) ;
#266 = SURFACE_STYLE_USAGE ( .BOTH. , #190 ) ;
#267 = DIRECTION ( 'NONE',  ( -1.355252715606880800E-016, -1.000000000000000000, 0.0000000000000000000 ) ) ;
#268 =( LENGTH_UNIT ( ) NAMED_UNIT ( * ) SI_UNIT ( .MILLI., .METRE. ) );
#269 = ORIENTED_EDGE ( 'NONE', *, *, #110, .F. ) ;
#270 = MECHANICAL_DESIGN_GEOMETRIC_PRESENTATION_REPRESENTATION (  '', ( #857 ), #148 ) ;
#271 = DIRECTION ( 'NONE',  ( 1.000000000000000000, 0.0000000000000000000, -0.0000000000000000000 ) ) ;
#272 = AXIS2_PLACEMENT_3D ( 'NONE', #932, #836, #75 ) ;
#273 = ORIENTED_EDGE ( 'NONE', *, *, #815, .F. ) ;
#274 = ORIENTED_EDGE ( 'NONE', *, *, #403, .F. ) ;
#275 = CARTESIAN_POINT ( 'NONE',  ( -0.5000000000000003300, 0.5999999999999998700, 0.2600000000000000100 ) ) ;
#276 = PRESENTATION_LAYER_ASSIGNMENT (  '', '', ( #387 ) ) ;
#277 = CARTESIAN_POINT ( 'NONE',  ( 1.600000000000000100, -0.8000000000000000400, 0.2600000000000000100 ) ) ;
#278 = PLANE ( 'NONE',  #751 ) ;
#279 = VERTEX_POINT ( 'NONE', #893 ) ;
#280 = VECTOR ( 'NONE', #319, 1000.000000000000000 ) ;
#281 = LINE ( 'NONE', #9, #850 ) ;
#282 =( LENGTH_UNIT ( ) NAMED_UNIT ( * ) SI_UNIT ( .MILLI., .METRE. ) );
#283 = VECTOR ( 'NONE', #754, 1000.000000000000000 ) ;
#284 = SURFACE_STYLE_FILL_AREA ( #956 ) ;
#285 = ORIENTED_EDGE ( 'NONE', *, *, #315, .F. ) ;
#286 = DIRECTION ( 'NONE',  ( -0.0000000000000000000, 0.0000000000000000000, 1.000000000000000000 ) ) ;
#287 = DIRECTION ( 'NONE',  ( -1.000000000000000000, -0.0000000000000000000, -0.0000000000000000000 ) ) ;
#288 = VECTOR ( 'NONE', #410, 1000.000000000000000 ) ;
#289 = VECTOR ( 'NONE', #37, 1000.000000000000000 ) ;
#290 = EDGE_CURVE ( 'NONE', #122, #675, #401, .T. ) ;
#291 = LINE ( 'NONE', #841, #368 ) ;
#292 = VECTOR ( 'NONE', #482, 1000.000000000000000 ) ;
#293 = SURFACE_STYLE_USAGE ( .BOTH. , #765 ) ;
#294 = VERTEX_POINT ( 'NONE', #58 ) ;
#295 =( NAMED_UNIT ( * ) SI_UNIT ( $, .STERADIAN. ) SOLID_ANGLE_UNIT ( ) );
#296 =( NAMED_UNIT ( * ) SI_UNIT ( $, .STERADIAN. ) SOLID_ANGLE_UNIT ( ) );
#297 = UNCERTAINTY_MEASURE_WITH_UNIT (LENGTH_MEASURE( 1.000000000000000100E-005 ), #55, 'distance_accuracy_value', 'NONE');
#298 = PRESENTATION_LAYER_ASSIGNMENT (  '', '', ( #954 ) ) ;
#299 = FILL_AREA_STYLE ('',( #2 ) ) ;
#300 = FILL_AREA_STYLE_COLOUR ( '', #121 ) ;
#301 = CARTESIAN_POINT ( 'NONE',  ( -0.5000000000000000000, 0.8000000000000001600, -0.2600000000000000100 ) ) ;
#302 = CARTESIAN_POINT ( 'NONE',  ( -1.100000000000000300, 0.5999999999999999800, 0.2600000000000000100 ) ) ;
#303 = ADVANCED_FACE ( 'NONE', ( #975 ), #70, .T. ) ;
#304 = VECTOR ( 'NONE', #15, 1000.000000000000000 ) ;
#305 = SURFACE_STYLE_USAGE ( .BOTH. , #237 ) ;
#306 = ORIENTED_EDGE ( 'NONE', *, *, #371, .T. ) ;
#307 = CARTESIAN_POINT ( 'NONE',  ( 1.200000000000000200, 0.8000000000000000400, -0.2600000000000000100 ) ) ;
#308 = EDGE_CURVE ( 'NONE', #940, #144, #291, .T. ) ;
#309 = COLOUR_RGB ( '',0.7686274509803920900, 0.7686274509803920900, 0.7686274509803920900 ) ;
#310 = DIRECTION ( 'NONE',  ( -0.0000000000000000000, -0.0000000000000000000, -1.000000000000000000 ) ) ;
#311 = ADVANCED_FACE ( 'NONE', ( #36 ), #523, .F. ) ;
#312 = VECTOR ( 'NONE', #527, 1000.000000000000000 ) ;
#313 = DIRECTION ( 'NONE',  ( -1.000000000000000000, -0.0000000000000000000, -0.0000000000000000000 ) ) ;
#314 = PRESENTATION_STYLE_ASSIGNMENT (( #83 ) ) ;
#315 = EDGE_CURVE ( 'NONE', #144, #790, #685, .T. ) ;
#316 = EDGE_LOOP ( 'NONE', ( #81, #738, #723, #549, #455, #678, #633, #921, #913, #241, #444, #220, #864, #273, #16, #584 ) ) ;
#317 = MECHANICAL_DESIGN_GEOMETRIC_PRESENTATION_REPRESENTATION (  '', ( #892 ), #576 ) ;
#318 = ORIENTED_EDGE ( 'NONE', *, *, #828, .T. ) ;
#319 = DIRECTION ( 'NONE',  ( -0.0000000000000000000, -0.0000000000000000000, 1.000000000000000000 ) ) ;
#320 = LINE ( 'NONE', #328, #704 ) ;
#321 = FILL_AREA_STYLE ('',( #698 ) ) ;
#322 = EDGE_CURVE ( 'NONE', #468, #19, #567, .T. ) ;
#323 = DIRECTION ( 'NONE',  ( -0.0000000000000000000, -0.0000000000000000000, 1.000000000000000000 ) ) ;
#324 = ORIENTED_EDGE ( 'NONE', *, *, #182, .F. ) ;
#325 = FILL_AREA_STYLE ('',( #30 ) ) ;
#326 = AXIS2_PLACEMENT_3D ( 'NONE', #26, #253, #543 ) ;
#327 = CARTESIAN_POINT ( 'NONE',  ( 0.0000000000000000000, 0.0000000000000000000, -0.2600000000000000100 ) ) ;
#328 = CARTESIAN_POINT ( 'NONE',  ( -1.100000000000000300, 0.5999999999999999800, 0.2600000000000000100 ) ) ;
#329 = SURFACE_STYLE_USAGE ( .BOTH. , #643 ) ;
#330 = SURFACE_STYLE_USAGE ( .BOTH. , #407 ) ;
#331 = MECHANICAL_DESIGN_GEOMETRIC_PRESENTATION_REPRESENTATION (  '', ( #497 ), #60 ) ;
#332 = VECTOR ( 'NONE', #469, 1000.000000000000000 ) ;
#333 = PRESENTATION_STYLE_ASSIGNMENT (( #293 ) ) ;
#334 =( NAMED_UNIT ( * ) SI_UNIT ( $, .STERADIAN. ) SOLID_ANGLE_UNIT ( ) );
#335 = ORIENTED_EDGE ( 'NONE', *, *, #793, .F. ) ;
#336 = SURFACE_SIDE_STYLE ('',( #390 ) ) ;
#337 = DIRECTION ( 'NONE',  ( -0.0000000000000000000, -0.0000000000000000000, 1.000000000000000000 ) ) ;
#338 = CARTESIAN_POINT ( 'NONE',  ( 1.600000000000000100, -0.8000000000000000400, -0.2600000000000000100 ) ) ;
#339 = VECTOR ( 'NONE', #502, 1000.000000000000000 ) ;
#340 = CARTESIAN_POINT ( 'NONE',  ( -0.5000000000000003300, -0.5999999999999998700, 0.2600000000000000100 ) ) ;
#341 = CARTESIAN_POINT ( 'NONE',  ( 0.0000000000000000000, 0.0000000000000000000, 0.0000000000000000000 ) ) ;
#342 =( NAMED_UNIT ( * ) SI_UNIT ( $, .STERADIAN. ) SOLID_ANGLE_UNIT ( ) );
#343 = FACE_OUTER_BOUND ( 'NONE', #124, .T. ) ;
#344 = AXIS2_PLACEMENT_3D ( 'NONE', #447, #357, #594 ) ;
#345 = LINE ( 'NONE', #340, #533 ) ;
#346 =( NAMED_UNIT ( * ) PLANE_ANGLE_UNIT ( ) SI_UNIT ( $, .RADIAN. ) );
#347 = ORIENTED_EDGE ( 'NONE', *, *, #265, .F. ) ;
#348 = VERTEX_POINT ( 'NONE', #598 ) ;
#349 = DIRECTION ( 'NONE',  ( -0.0000000000000000000, -0.0000000000000000000, -1.000000000000000000 ) ) ;
#350 = UNCERTAINTY_MEASURE_WITH_UNIT (LENGTH_MEASURE( 1.000000000000000100E-005 ), #935, 'distance_accuracy_value', 'NONE');
#351 = FILL_AREA_STYLE ('',( #736 ) ) ;
#352 = VECTOR ( 'NONE', #733, 1000.000000000000000 ) ;
#353 = EDGE_CURVE ( 'NONE', #424, #854, #260, .T. ) ;
#354 = DIRECTION ( 'NONE',  ( -1.355252715606880500E-016, -1.000000000000000000, 0.0000000000000000000 ) ) ;
#355 = VECTOR ( 'NONE', #976, 1000.000000000000000 ) ;
#356 = ORIENTED_EDGE ( 'NONE', *, *, #77, .T. ) ;
#357 = DIRECTION ( 'NONE',  ( -1.000000000000000000, 0.0000000000000000000, 0.0000000000000000000 ) ) ;
#358 = AXIS2_PLACEMENT_3D ( 'NONE', #806, #271, #414 ) ;
#359 = DIRECTION ( 'NONE',  ( -0.0000000000000000000, -0.0000000000000000000, 1.000000000000000000 ) ) ;
#360 = UNCERTAINTY_MEASURE_WITH_UNIT (LENGTH_MEASURE( 1.000000000000000100E-005 ), #376, 'distance_accuracy_value', 'NONE');
#361 = MECHANICAL_DESIGN_GEOMETRIC_PRESENTATION_REPRESENTATION (  '', ( #944 ), #100 ) ;
#362 = SURFACE_SIDE_STYLE ('',( #882 ) ) ;
#363 = FILL_AREA_STYLE_COLOUR ( '', #632 ) ;
#364 = VECTOR ( 'NONE', #646, 1000.000000000000000 ) ;
#365 = ORIENTED_EDGE ( 'NONE', *, *, #412, .T. ) ;
#366 = LINE ( 'NONE', #307, #84 ) ;
#367 = DIRECTION ( 'NONE',  ( -0.0000000000000000000, 0.0000000000000000000, 1.000000000000000000 ) ) ;
#368 = VECTOR ( 'NONE', #763, 1000.000000000000000 ) ;
#369 =( GEOMETRIC_REPRESENTATION_CONTEXT ( 3 ) GLOBAL_UNCERTAINTY_ASSIGNED_CONTEXT ( ( #350 ) ) GLOBAL_UNIT_ASSIGNED_CONTEXT ( ( #935, #631, #176 ) ) REPRESENTATION_CONTEXT ( 'NONE', 'WORKASPACE' ) );
#370 = CARTESIAN_POINT ( 'NONE',  ( -1.200000000000000400, 0.8000000000000000400, 0.2500000000000000000 ) ) ;
#371 = EDGE_CURVE ( 'NONE', #873, #468, #872, .T. ) ;
#372 = ORIENTED_EDGE ( 'NONE', *, *, #797, .T. ) ;
#373 =( NAMED_UNIT ( * ) SI_UNIT ( $, .STERADIAN. ) SOLID_ANGLE_UNIT ( ) );
#374 = ORIENTED_EDGE ( 'NONE', *, *, #668, .F. ) ;
#375 = SHAPE_DEFINITION_REPRESENTATION ( #512, #188 ) ;
#376 =( LENGTH_UNIT ( ) NAMED_UNIT ( * ) SI_UNIT ( .MILLI., .METRE. ) );
#377 = CARTESIAN_POINT ( 'NONE',  ( 1.600000000000000100, -0.8000000000000000400, 0.2600000000000000100 ) ) ;
#378 = CARTESIAN_POINT ( 'NONE',  ( -0.5000000000000000000, 0.8000000000000001600, -0.2600000000000000100 ) ) ;
#379 = VECTOR ( 'NONE', #817, 1000.000000000000000 ) ;
#380 = STYLED_ITEM ( 'NONE', ( #249 ), #729 ) ;
#381 = VECTOR ( 'NONE', #495, 1000.000000000000000 ) ;
#382 = COLOUR_RGB ( '',1.000000000000000000, 0.9333333333333333500, 0.5568627450980392400 ) ;
#383 =( NAMED_UNIT ( * ) PLANE_ANGLE_UNIT ( ) SI_UNIT ( $, .RADIAN. ) );
#384 = PLANE ( 'NONE',  #20 ) ;
#385 = UNCERTAINTY_MEASURE_WITH_UNIT (LENGTH_MEASURE( 1.000000000000000100E-005 ), #136, 'distance_accuracy_value', 'NONE');
#386 = DIRECTION ( 'NONE',  ( 1.000000000000000000, 0.0000000000000000000, 0.0000000000000000000 ) ) ;
#387 = STYLED_ITEM ( 'NONE', ( #59 ), #858 ) ;
#388 = ORIENTED_EDGE ( 'NONE', *, *, #622, .F. ) ;
#389 = AXIS2_PLACEMENT_3D ( 'NONE', #683, #223, #669 ) ;
#390 = SURFACE_STYLE_FILL_AREA ( #891 ) ;
#391 = ADVANCED_FACE ( 'NONE', ( #227 ), #147, .F. ) ;
#392 = DIRECTION ( 'NONE',  ( -1.000000000000000000, -8.131516293641280300E-016, -0.0000000000000000000 ) ) ;
#393 = CARTESIAN_POINT ( 'NONE',  ( -1.100000000000000300, 0.5999999999999999800, 0.2600000000000000100 ) ) ;
#394 = AXIS2_PLACEMENT_3D ( 'NONE', #341, #880, #894 ) ;
#395 = VECTOR ( 'NONE', #900, 1000.000000000000000 ) ;
#396 = VECTOR ( 'NONE', #651, 1000.000000000000000 ) ;
#397 = PRESENTATION_STYLE_ASSIGNMENT (( #329 ) ) ;
#398 = VERTEX_POINT ( 'NONE', #907 ) ;
#399 = LINE ( 'NONE', #17, #823 ) ;
#400 = FACE_OUTER_BOUND ( 'NONE', #957, .T. ) ;
#401 = LINE ( 'NONE', #513, #205 ) ;
#402 = UNCERTAINTY_MEASURE_WITH_UNIT (LENGTH_MEASURE( 1.000000000000000100E-005 ), #78, 'distance_accuracy_value', 'NONE');
#403 = EDGE_CURVE ( 'NONE', #279, #677, #672, .T. ) ;
#404 = CARTESIAN_POINT ( 'NONE',  ( -1.200000000000000200, 0.8000000000000003800, -0.2600000000000000100 ) ) ;
#405 = MECHANICAL_DESIGN_GEOMETRIC_PRESENTATION_REPRESENTATION (  '', ( #478 ), #461 ) ;
#406 = ORIENTED_EDGE ( 'NONE', *, *, #8, .T. ) ;
#407 = SURFACE_SIDE_STYLE ('',( #904 ) ) ;
#408 = CARTESIAN_POINT ( 'NONE',  ( -1.600000000000000500, 0.8000000000000000400, 0.2600000000000000100 ) ) ;
#409 = PLANE ( 'NONE',  #783 ) ;
#410 = DIRECTION ( 'NONE',  ( 1.000000000000000000, 0.0000000000000000000, 0.0000000000000000000 ) ) ;
#411 = FACE_OUTER_BOUND ( 'NONE', #721, .T. ) ;
#412 = EDGE_CURVE ( 'NONE', #348, #970, #544, .T. ) ;
#413 = ORIENTED_EDGE ( 'NONE', *, *, #916, .T. ) ;
#414 = DIRECTION ( 'NONE',  ( -0.0000000000000000000, 0.0000000000000000000, -1.000000000000000000 ) ) ;
#415 = CARTESIAN_POINT ( 'NONE',  ( -1.100000000000000300, -0.5999999999999999800, 0.2500000000000000000 ) ) ;
#416 = ORIENTED_EDGE ( 'NONE', *, *, #475, .T. ) ;
#417 = COLOUR_RGB ( '',1.000000000000000000, 0.9333333333333333500, 0.5568627450980392400 ) ;
#418 = DIRECTION ( 'NONE',  ( 0.0000000000000000000, -0.0000000000000000000, -1.000000000000000000 ) ) ;
#419 = CARTESIAN_POINT ( 'NONE',  ( -0.5000000000000003300, 0.5999999999999998700, 0.2500000000000000000 ) ) ;
#420 = MECHANICAL_DESIGN_GEOMETRIC_PRESENTATION_REPRESENTATION (  '', ( #574 ), #174 ) ;
#421 =( NAMED_UNIT ( * ) PLANE_ANGLE_UNIT ( ) SI_UNIT ( $, .RADIAN. ) );
#422 = LINE ( 'NONE', #649, #138 ) ;
#423 = SURFACE_STYLE_USAGE ( .BOTH. , #336 ) ;
#424 = VERTEX_POINT ( 'NONE', #830 ) ;
#425 = AXIS2_PLACEMENT_3D ( 'NONE', #517, #434, #968 ) ;
#426 = VECTOR ( 'NONE', #614, 1000.000000000000000 ) ;
#427 = VECTOR ( 'NONE', #689, 1000.000000000000000 ) ;
#428 = VECTOR ( 'NONE', #323, 1000.000000000000000 ) ;
#429 = CARTESIAN_POINT ( 'NONE',  ( 0.0000000000000000000, 0.0000000000000000000, -0.2600000000000000100 ) ) ;
#430 = ADVANCED_FACE ( 'NONE', ( #465 ), #757, .F. ) ;
#431 = SURFACE_STYLE_USAGE ( .BOTH. , #590 ) ;
#432 =( GEOMETRIC_REPRESENTATION_CONTEXT ( 3 ) GLOBAL_UNCERTAINTY_ASSIGNED_CONTEXT ( ( #612 ) ) GLOBAL_UNIT_ASSIGNED_CONTEXT ( ( #34, #109, #875 ) ) REPRESENTATION_CONTEXT ( 'NONE', 'WORKASPACE' ) );
#433 = EDGE_CURVE ( 'NONE', #940, #960, #95, .T. ) ;
#434 = DIRECTION ( 'NONE',  ( 0.0000000000000000000, 1.000000000000000000, 0.0000000000000000000 ) ) ;
#435 = UNCERTAINTY_MEASURE_WITH_UNIT (LENGTH_MEASURE( 1.000000000000000100E-005 ), #74, 'distance_accuracy_value', 'NONE');
#436 = CARTESIAN_POINT ( 'NONE',  ( 1.600000000000000100, -0.8000000000000000400, -0.2600000000000000100 ) ) ;
#437 = DIRECTION ( 'NONE',  ( 1.000000000000000000, 0.0000000000000000000, 0.0000000000000000000 ) ) ;
#438 = FACE_OUTER_BOUND ( 'NONE', #634, .T. ) ;
#439 = DIRECTION ( 'NONE',  ( -1.000000000000000000, 0.0000000000000000000, 0.0000000000000000000 ) ) ;
#440 = LINE ( 'NONE', #233, #332 ) ;
#441 = MECHANICAL_DESIGN_GEOMETRIC_PRESENTATION_REPRESENTATION (  '', ( #927 ), #838 ) ;
#442 = VECTOR ( 'NONE', #244, 1000.000000000000000 ) ;
#443 = CARTESIAN_POINT ( 'NONE',  ( 1.600000000000000100, 0.8000000000000000400, 0.2600000000000000100 ) ) ;
#444 = ORIENTED_EDGE ( 'NONE', *, *, #484, .F. ) ;
#445 = ORIENTED_EDGE ( 'NONE', *, *, #353, .F. ) ;
#446 = ORIENTED_EDGE ( 'NONE', *, *, #851, .T. ) ;
#447 = CARTESIAN_POINT ( 'NONE',  ( 1.600000000000000100, -0.8000000000000000400, 0.2500000000000000000 ) ) ;
#448 = CARTESIAN_POINT ( 'NONE',  ( 0.0000000000000000000, 0.0000000000000000000, -0.2500000000000000000 ) ) ;
#449 = VERTEX_POINT ( 'NONE', #151 ) ;
#450 = PRESENTATION_STYLE_ASSIGNMENT (( #186 ) ) ;
#451 = AXIS2_PLACEMENT_3D ( 'NONE', #393, #779, #472 ) ;
#452 = FILL_AREA_STYLE ('',( #300 ) ) ;
#453 = LINE ( 'NONE', #905, #442 ) ;
#454 = VECTOR ( 'NONE', #560, 1000.000000000000000 ) ;
#455 = ORIENTED_EDGE ( 'NONE', *, *, #740, .F. ) ;
#456 =( LENGTH_UNIT ( ) NAMED_UNIT ( * ) SI_UNIT ( .MILLI., .METRE. ) );
#457 =( NAMED_UNIT ( * ) SI_UNIT ( $, .STERADIAN. ) SOLID_ANGLE_UNIT ( ) );
#458 = ORIENTED_EDGE ( 'NONE', *, *, #507, .F. ) ;
#459 = DIRECTION ( 'NONE',  ( 0.0000000000000000000, 0.0000000000000000000, -1.000000000000000000 ) ) ;
#460 =( NAMED_UNIT ( * ) PLANE_ANGLE_UNIT ( ) SI_UNIT ( $, .RADIAN. ) );
#461 =( GEOMETRIC_REPRESENTATION_CONTEXT ( 3 ) GLOBAL_UNCERTAINTY_ASSIGNED_CONTEXT ( ( #435 ) ) GLOBAL_UNIT_ASSIGNED_CONTEXT ( ( #74, #226, #599 ) ) REPRESENTATION_CONTEXT ( 'NONE', 'WORKASPACE' ) );
#462 = ORIENTED_EDGE ( 'NONE', *, *, #777, .T. ) ;
#463 = COLOUR_RGB ( '',0.1137254901960784300, 0.1137254901960784300, 0.1137254901960784300 ) ;
#464 = FILL_AREA_STYLE_COLOUR ( '', #923 ) ;
#465 = FACE_OUTER_BOUND ( 'NONE', #38, .T. ) ;
#466 = MECHANICAL_DESIGN_GEOMETRIC_PRESENTATION_REPRESENTATION (  '', ( #387 ), #933 ) ;
#467 = PRESENTATION_STYLE_ASSIGNMENT (( #266 ) ) ;
#468 = VERTEX_POINT ( 'NONE', #615 ) ;
#469 = DIRECTION ( 'NONE',  ( 1.000000000000000000, 1.807003620809174100E-016, 0.0000000000000000000 ) ) ;
#470 = FILL_AREA_STYLE_COLOUR ( '', #181 ) ;
#471 = EDGE_CURVE ( 'NONE', #294, #888, #453, .T. ) ;
#472 = DIRECTION ( 'NONE',  ( -0.0000000000000000000, 0.0000000000000000000, -1.000000000000000000 ) ) ;
#473 = ADVANCED_FACE ( 'NONE', ( #250 ), #384, .F. ) ;
#474 =( NAMED_UNIT ( * ) PLANE_ANGLE_UNIT ( ) SI_UNIT ( $, .RADIAN. ) );
#475 = EDGE_CURVE ( 'NONE', #955, #348, #834, .T. ) ;
#476 = DIRECTION ( 'NONE',  ( -1.355252715606880500E-016, -1.000000000000000000, 0.0000000000000000000 ) ) ;
#477 = ORIENTED_EDGE ( 'NONE', *, *, #308, .F. ) ;
#478 = STYLED_ITEM ( 'NONE', ( #63 ), #619 ) ;
#479 = ORIENTED_EDGE ( 'NONE', *, *, #322, .F. ) ;
#480 = ORIENTED_EDGE ( 'NONE', *, *, #851, .F. ) ;
#481 = PLANE ( 'NONE',  #617 ) ;
#482 = DIRECTION ( 'NONE',  ( 1.000000000000000000, 0.0000000000000000000, 0.0000000000000000000 ) ) ;
#483 = SURFACE_SIDE_STYLE ('',( #102 ) ) ;
#484 = EDGE_CURVE ( 'NONE', #559, #977, #52, .T. ) ;
#485 = ORIENTED_EDGE ( 'NONE', *, *, #743, .F. ) ;
#486 = LINE ( 'NONE', #764, #897 ) ;
#487 = LINE ( 'NONE', #101, #428 ) ;
#488 = EDGE_LOOP ( 'NONE', ( #140, #624, #490, #193 ) ) ;
#489 = MECHANICAL_DESIGN_GEOMETRIC_PRESENTATION_REPRESENTATION (  '', ( #203 ), #3 ) ;
#490 = ORIENTED_EDGE ( 'NONE', *, *, #412, .F. ) ;
#491 = SURFACE_SIDE_STYLE ('',( #91 ) ) ;
#492 = CARTESIAN_POINT ( 'NONE',  ( 1.600000000000000100, 0.8000000000000000400, 0.2600000000000000100 ) ) ;
#493 = DIRECTION ( 'NONE',  ( 0.0000000000000000000, -1.000000000000000000, 0.0000000000000000000 ) ) ;
#494 = PRESENTATION_STYLE_ASSIGNMENT (( #209 ) ) ;
#495 = DIRECTION ( 'NONE',  ( 0.0000000000000000000, -1.000000000000000000, 0.0000000000000000000 ) ) ;
#496 = DIRECTION ( 'NONE',  ( -0.0000000000000000000, -0.0000000000000000000, -1.000000000000000000 ) ) ;
#497 = STYLED_ITEM ( 'NONE', ( #781 ), #188 ) ;
#498 = PRESENTATION_LAYER_ASSIGNMENT (  '', '', ( #809 ) ) ;
#499 = ORIENTED_EDGE ( 'NONE', *, *, #143, .F. ) ;
#500 = DIRECTION ( 'NONE',  ( 0.0000000000000000000, -1.000000000000000000, 0.0000000000000000000 ) ) ;
#501 = LINE ( 'NONE', #191, #288 ) ;
#502 = DIRECTION ( 'NONE',  ( 1.000000000000000000, -0.0000000000000000000, -0.0000000000000000000 ) ) ;
#503 = CARTESIAN_POINT ( 'NONE',  ( -0.5000000000000000000, 0.8000000000000001600, -0.2500000000000000000 ) ) ;
#504 = MECHANICAL_DESIGN_GEOMETRIC_PRESENTATION_REPRESENTATION (  '', ( #553 ), #432 ) ;
#505 = VERTEX_POINT ( 'NONE', #158 ) ;
#506 = CARTESIAN_POINT ( 'NONE',  ( -1.200000000000000400, 0.8000000000000000400, 0.2600000000000000100 ) ) ;
#507 = EDGE_CURVE ( 'NONE', #888, #348, #366, .T. ) ;
#508 = ORIENTED_EDGE ( 'NONE', *, *, #965, .F. ) ;
#509 = DIRECTION ( 'NONE',  ( -1.000000000000000000, 0.0000000000000000000, -0.0000000000000000000 ) ) ;
#510 = UNCERTAINTY_MEASURE_WITH_UNIT (LENGTH_MEASURE( 1.000000000000000100E-005 ), #726, 'distance_accuracy_value', 'NONE');
#511 =( GEOMETRIC_REPRESENTATION_CONTEXT ( 3 ) GLOBAL_UNCERTAINTY_ASSIGNED_CONTEXT ( ( #759 ) ) GLOBAL_UNIT_ASSIGNED_CONTEXT ( ( #842, #383, #373 ) ) REPRESENTATION_CONTEXT ( 'NONE', 'WORKASPACE' ) );
#512 = PRODUCT_DEFINITION_SHAPE ( 'NONE', 'NONE',  #756 ) ;
#513 = CARTESIAN_POINT ( 'NONE',  ( -1.200000000000000200, 0.8000000000000003800, -0.2500000000000000000 ) ) ;
#514 = EDGE_LOOP ( 'NONE', ( #485, #597, #479, #245 ) ) ;
#515 = EDGE_LOOP ( 'NONE', ( #812, #647, #648, #365, #561, #508, #413, #912, #263, #445, #480, #219, #66, #761, #208, #157 ) ) ;
#516 = EDGE_LOOP ( 'NONE', ( #372, #592, #804, #865 ) ) ;
#517 = CARTESIAN_POINT ( 'NONE',  ( -1.600000000000000500, -0.8000000000000000400, 0.2500000000000000000 ) ) ;
#518 = EDGE_CURVE ( 'NONE', #979, #279, #644, .T. ) ;
#519 =( LENGTH_UNIT ( ) NAMED_UNIT ( * ) SI_UNIT ( .MILLI., .METRE. ) );
#520 = COLOUR_RGB ( '',0.7686274509803920900, 0.7686274509803920900, 0.7686274509803920900 ) ;
#521 = LINE ( 'NONE', #529, #312 ) ;
#522 = VECTOR ( 'NONE', #359, 1000.000000000000000 ) ;
#523 = PLANE ( 'NONE',  #389 ) ;
#524 = PRESENTATION_LAYER_ASSIGNMENT (  '', '', ( #574 ) ) ;
#525 = ORIENTED_EDGE ( 'NONE', *, *, #532, .F. ) ;
#526 = FILL_AREA_STYLE_COLOUR ( '', #168 ) ;
#527 = DIRECTION ( 'NONE',  ( -0.0000000000000000000, -0.0000000000000000000, -1.000000000000000000 ) ) ;
#528 = LINE ( 'NONE', #436, #150 ) ;
#529 = CARTESIAN_POINT ( 'NONE',  ( 1.200000000000000400, -0.8000000000000000400, 0.2600000000000000100 ) ) ;
#530 = SURFACE_SIDE_STYLE ('',( #952 ) ) ;
#531 = LINE ( 'NONE', #856, #814 ) ;
#532 = EDGE_CURVE ( 'NONE', #688, #977, #531, .T. ) ;
#533 = VECTOR ( 'NONE', #582, 1000.000000000000000 ) ;
#534 = ORIENTED_EDGE ( 'NONE', *, *, #77, .F. ) ;
#535 = ORIENTED_EDGE ( 'NONE', *, *, #640, .T. ) ;
#536 =( NAMED_UNIT ( * ) PLANE_ANGLE_UNIT ( ) SI_UNIT ( $, .RADIAN. ) );
#537 = PRODUCT_DEFINITION_CONTEXT ( 'detailed design', #123, 'design' ) ;
#538 = DIRECTION ( 'NONE',  ( 1.355252715606880800E-016, 1.000000000000000000, 0.0000000000000000000 ) ) ;
#539 = AXIS2_PLACEMENT_3D ( 'NONE', #128, #439, #588 ) ;
#540 = LINE ( 'NONE', #716, #934 ) ;
#541 = FILL_AREA_STYLE_COLOUR ( '', #258 ) ;
#542 = DIRECTION ( 'NONE',  ( 0.0000000000000000000, -1.000000000000000000, 0.0000000000000000000 ) ) ;
#543 = DIRECTION ( 'NONE',  ( -1.000000000000000000, 0.0000000000000000000, 0.0000000000000000000 ) ) ;
#544 = LINE ( 'NONE', #221, #238 ) ;
#545 = ADVANCED_FACE ( 'NONE', ( #167 ), #235, .F. ) ;
#546 =( GEOMETRIC_REPRESENTATION_CONTEXT ( 3 ) GLOBAL_UNCERTAINTY_ASSIGNED_CONTEXT ( ( #402 ) ) GLOBAL_UNIT_ASSIGNED_CONTEXT ( ( #78, #536, #295 ) ) REPRESENTATION_CONTEXT ( 'NONE', 'WORKASPACE' ) );
#547 = ORIENTED_EDGE ( 'NONE', *, *, #247, .T. ) ;
#548 = CARTESIAN_POINT ( 'NONE',  ( 0.4999999999999997800, -0.8000000000000000400, -0.2500000000000000000 ) ) ;
#549 = ORIENTED_EDGE ( 'NONE', *, *, #758, .T. ) ;
#550 = EDGE_LOOP ( 'NONE', ( #832, #902, #636, #195 ) ) ;
#551 = CARTESIAN_POINT ( 'NONE',  ( -1.600000000000000500, -0.8000000000000000400, -0.2600000000000000100 ) ) ;
#552 = SURFACE_STYLE_USAGE ( .BOTH. , #246 ) ;
#553 = STYLED_ITEM ( 'NONE', ( #450 ), #775 ) ;
#554 = EDGE_CURVE ( 'NONE', #840, #887, #486, .T. ) ;
#555 = VECTOR ( 'NONE', #724, 1000.000000000000000 ) ;
#556 = PRESENTATION_STYLE_ASSIGNMENT (( #926 ) ) ;
#557 = DIRECTION ( 'NONE',  ( -0.0000000000000000000, -0.0000000000000000000, -1.000000000000000000 ) ) ;
#558 = PRESENTATION_LAYER_ASSIGNMENT (  '', '', ( #892 ) ) ;
#559 = VERTEX_POINT ( 'NONE', #377 ) ;
#560 = DIRECTION ( 'NONE',  ( -0.0000000000000000000, 1.000000000000000000, -0.0000000000000000000 ) ) ;
#561 = ORIENTED_EDGE ( 'NONE', *, *, #828, .F. ) ;
#562 = CARTESIAN_POINT ( 'NONE',  ( -1.100000000000000300, -0.5999999999999999800, 0.2600000000000000100 ) ) ;
#563 = PLANE ( 'NONE',  #251 ) ;
#564 = EDGE_LOOP ( 'NONE', ( #939, #535, #642, #725 ) ) ;
#565 = CARTESIAN_POINT ( 'NONE',  ( -1.600000000000000500, -0.8000000000000000400, 0.2600000000000000100 ) ) ;
#566 = EDGE_CURVE ( 'NONE', #970, #677, #281, .T. ) ;
#567 = LINE ( 'NONE', #370, #883 ) ;
#568 = FILL_AREA_STYLE ('',( #961 ) ) ;
#569 = DIRECTION ( 'NONE',  ( 1.000000000000000000, 0.0000000000000000000, 0.0000000000000000000 ) ) ;
#570 = VERTEX_POINT ( 'NONE', #852 ) ;
#571 = FILL_AREA_STYLE_COLOUR ( '', #104 ) ;
#572 = VERTEX_POINT ( 'NONE', #5 ) ;
#573 = CARTESIAN_POINT ( 'NONE',  ( 1.200000000000000000, -0.8000000000000000400, -0.2500000000000000000 ) ) ;
#574 = STYLED_ITEM ( 'NONE', ( #397 ), #87 ) ;
#575 = DIRECTION ( 'NONE',  ( -0.0000000000000000000, -0.0000000000000000000, -1.000000000000000000 ) ) ;
#576 =( GEOMETRIC_REPRESENTATION_CONTEXT ( 3 ) GLOBAL_UNCERTAINTY_ASSIGNED_CONTEXT ( ( #773 ) ) GLOBAL_UNIT_ASSIGNED_CONTEXT ( ( #676, #460, #296 ) ) REPRESENTATION_CONTEXT ( 'NONE', 'WORKASPACE' ) );
#577 = ORIENTED_EDGE ( 'NONE', *, *, #143, .T. ) ;
#578 = CARTESIAN_POINT ( 'NONE',  ( 0.0000000000000000000, 0.0000000000000000000, 0.2600000000000000100 ) ) ;
#579 = VECTOR ( 'NONE', #863, 1000.000000000000000 ) ;
#580 = UNCERTAINTY_MEASURE_WITH_UNIT (LENGTH_MEASURE( 1.000000000000000100E-005 ), #456, 'distance_accuracy_value', 'NONE');
#581 =( LENGTH_UNIT ( ) NAMED_UNIT ( * ) SI_UNIT ( .MILLI., .METRE. ) );
#582 = DIRECTION ( 'NONE',  ( -0.0000000000000000000, -0.0000000000000000000, -1.000000000000000000 ) ) ;
#583 = MECHANICAL_DESIGN_GEOMETRIC_PRESENTATION_REPRESENTATION (  '', ( #243 ), #737 ) ;
#584 = ORIENTED_EDGE ( 'NONE', *, *, #8, .F. ) ;
#585 = ORIENTED_EDGE ( 'NONE', *, *, #758, .F. ) ;
#586 =( NAMED_UNIT ( * ) PLANE_ANGLE_UNIT ( ) SI_UNIT ( $, .RADIAN. ) );
#587 = CARTESIAN_POINT ( 'NONE',  ( -1.200000000000000400, -0.8000000000000000400, 0.2600000000000000100 ) ) ;
#588 = DIRECTION ( 'NONE',  ( 0.0000000000000000000, 0.0000000000000000000, 1.000000000000000000 ) ) ;
#589 = VECTOR ( 'NONE', #557, 1000.000000000000000 ) ;
#590 = SURFACE_SIDE_STYLE ('',( #115 ) ) ;
#591 = UNCERTAINTY_MEASURE_WITH_UNIT (LENGTH_MEASURE( 1.000000000000000100E-005 ), #204, 'distance_accuracy_value', 'NONE');
#592 = ORIENTED_EDGE ( 'NONE', *, *, #353, .T. ) ;
#593 = ORIENTED_EDGE ( 'NONE', *, *, #119, .F. ) ;
#594 = DIRECTION ( 'NONE',  ( 0.0000000000000000000, 0.0000000000000000000, 1.000000000000000000 ) ) ;
#595 = ORIENTED_EDGE ( 'NONE', *, *, #718, .T. ) ;
#596 = PRESENTATION_LAYER_ASSIGNMENT (  '', '', ( #478 ) ) ;
#597 = ORIENTED_EDGE ( 'NONE', *, *, #878, .T. ) ;
#598 = CARTESIAN_POINT ( 'NONE',  ( 1.200000000000000200, 0.8000000000000000400, -0.2500000000000000000 ) ) ;
#599 =( NAMED_UNIT ( * ) SI_UNIT ( $, .STERADIAN. ) SOLID_ANGLE_UNIT ( ) );
#600 =( GEOMETRIC_REPRESENTATION_CONTEXT ( 3 ) GLOBAL_UNCERTAINTY_ASSIGNED_CONTEXT ( ( #297 ) ) GLOBAL_UNIT_ASSIGNED_CONTEXT ( ( #55, #739, #126 ) ) REPRESENTATION_CONTEXT ( 'NONE', 'WORKASPACE' ) );
#601 = FILL_AREA_STYLE ('',( #526 ) ) ;
#602 = ORIENTED_EDGE ( 'NONE', *, *, #322, .T. ) ;
#603 = EDGE_CURVE ( 'NONE', #790, #449, #440, .T. ) ;
#604 = FACE_OUTER_BOUND ( 'NONE', #550, .T. ) ;
#605 = PLANE ( 'NONE',  #660 ) ;
#606 = ORIENTED_EDGE ( 'NONE', *, *, #603, .T. ) ;
#607 = SURFACE_STYLE_USAGE ( .BOTH. , #530 ) ;
#608 = ORIENTED_EDGE ( 'NONE', *, *, #937, .T. ) ;
#609 = VERTEX_POINT ( 'NONE', #301 ) ;
#610 = CARTESIAN_POINT ( 'NONE',  ( -1.200000000000000400, -0.8000000000000000400, 0.2600000000000000100 ) ) ;
#611 = PRESENTATION_LAYER_ASSIGNMENT (  '', '', ( #187 ) ) ;
#612 = UNCERTAINTY_MEASURE_WITH_UNIT (LENGTH_MEASURE( 1.000000000000000100E-005 ), #34, 'distance_accuracy_value', 'NONE');
#613 = ADVANCED_FACE ( 'NONE', ( #604 ), #929, .T. ) ;
#614 = DIRECTION ( 'NONE',  ( -1.000000000000000000, 1.084202172485504400E-016, 0.0000000000000000000 ) ) ;
#615 = CARTESIAN_POINT ( 'NONE',  ( -1.200000000000000400, -0.8000000000000000400, 0.2500000000000000000 ) ) ;
#616 = LINE ( 'NONE', #404, #966 ) ;
#617 = AXIS2_PLACEMENT_3D ( 'NONE', #877, #868, #267 ) ;
#618 =( NAMED_UNIT ( * ) SI_UNIT ( $, .STERADIAN. ) SOLID_ANGLE_UNIT ( ) );
#619 = ADVANCED_FACE ( 'NONE', ( #343 ), #605, .T. ) ;
#620 = ORIENTED_EDGE ( 'NONE', *, *, #290, .F. ) ;
#621 = EDGE_LOOP ( 'NONE', ( #577, #285, #477, #827 ) ) ;
#622 = EDGE_CURVE ( 'NONE', #57, #699, #521, .T. ) ;
#623 = ADVANCED_FACE ( 'NONE', ( #400 ), #924, .T. ) ;
#624 = ORIENTED_EDGE ( 'NONE', *, *, #566, .F. ) ;
#625 = CARTESIAN_POINT ( 'NONE',  ( 1.200000000000000400, 0.8000000000000000400, 0.2600000000000000100 ) ) ;
#626 = CARTESIAN_POINT ( 'NONE',  ( 1.200000000000000400, 0.8000000000000000400, 0.2600000000000000100 ) ) ;
#627 = DIRECTION ( 'NONE',  ( -1.000000000000000000, 1.807003620809174100E-016, -0.0000000000000000000 ) ) ;
#628 = LINE ( 'NONE', #896, #21 ) ;
#629 = ADVANCED_FACE ( 'NONE', ( #118 ), #769, .F. ) ;
#630 = VECTOR ( 'NONE', #386, 1000.000000000000000 ) ;
#631 =( NAMED_UNIT ( * ) PLANE_ANGLE_UNIT ( ) SI_UNIT ( $, .RADIAN. ) );
#632 = COLOUR_RGB ( '',0.7686274509803920900, 0.7686274509803920900, 0.7686274509803920900 ) ;
#633 = ORIENTED_EDGE ( 'NONE', *, *, #403, .T. ) ;
#634 = EDGE_LOOP ( 'NONE', ( #165, #406, #68, #184 ) ) ;
#635 = PLANE ( 'NONE',  #451 ) ;
#636 = ORIENTED_EDGE ( 'NONE', *, *, #471, .T. ) ;
#637 = ORIENTED_EDGE ( 'NONE', *, *, #566, .T. ) ;
#638 = CARTESIAN_POINT ( 'NONE',  ( -0.5000000000000003300, 0.5999999999999998700, 0.2500000000000000000 ) ) ;
#639 = DIRECTION ( 'NONE',  ( -0.0000000000000000000, 1.000000000000000000, -0.0000000000000000000 ) ) ;
#640 = EDGE_CURVE ( 'NONE', #279, #29, #945, .T. ) ;
#641 = SURFACE_STYLE_USAGE ( .BOTH. , #483 ) ;
#642 = ORIENTED_EDGE ( 'NONE', *, *, #162, .T. ) ;
#643 = SURFACE_SIDE_STYLE ('',( #49 ) ) ;
#644 = LINE ( 'NONE', #239, #304 ) ;
#645 = ORIENTED_EDGE ( 'NONE', *, *, #978, .T. ) ;
#646 = DIRECTION ( 'NONE',  ( -1.000000000000000000, -0.0000000000000000000, -0.0000000000000000000 ) ) ;
#647 = ORIENTED_EDGE ( 'NONE', *, *, #231, .F. ) ;
#648 = ORIENTED_EDGE ( 'NONE', *, *, #507, .T. ) ;
#649 = CARTESIAN_POINT ( 'NONE',  ( -1.100000000000000300, 0.5999999999999999800, 0.2500000000000000000 ) ) ;
#650 = DIRECTION ( 'NONE',  ( -1.000000000000000000, 0.0000000000000000000, 0.0000000000000000000 ) ) ;
#651 = DIRECTION ( 'NONE',  ( -0.0000000000000000000, -0.0000000000000000000, 1.000000000000000000 ) ) ;
#652 =( NAMED_UNIT ( * ) PLANE_ANGLE_UNIT ( ) SI_UNIT ( $, .RADIAN. ) );
#653 = CARTESIAN_POINT ( 'NONE',  ( -1.200000000000000200, 0.8000000000000003800, -0.2500000000000000000 ) ) ;
#654 = AXIS2_PLACEMENT_3D ( 'NONE', #562, #43, #881 ) ;
#655 = APPLICATION_PROTOCOL_DEFINITION ( 'draft international standard', 'automotive_design', 1998, #42 ) ;
#656 = CARTESIAN_POINT ( 'NONE',  ( -1.600000000000000500, 0.8000000000000000400, 0.2600000000000000100 ) ) ;
#657 = FILL_AREA_STYLE_COLOUR ( '', #10 ) ;
#658 = EDGE_LOOP ( 'NONE', ( #416, #458, #973, #39 ) ) ;
#659 = DIRECTION ( 'NONE',  ( 1.355252715606880500E-016, 1.000000000000000000, -0.0000000000000000000 ) ) ;
#660 = AXIS2_PLACEMENT_3D ( 'NONE', #679, #367, #674 ) ;
#661 = LINE ( 'NONE', #742, #31 ) ;
#662 = ORIENTED_EDGE ( 'NONE', *, *, #903, .F. ) ;
#663 = CARTESIAN_POINT ( 'NONE',  ( 1.600000000000000100, 0.8000000000000000400, 0.2500000000000000000 ) ) ;
#664 = LINE ( 'NONE', #185, #697 ) ;
#665 = ORIENTED_EDGE ( 'NONE', *, *, #247, .F. ) ;
#666 = ORIENTED_EDGE ( 'NONE', *, *, #433, .F. ) ;
#667 = DIRECTION ( 'NONE',  ( 1.000000000000000000, 0.0000000000000000000, 0.0000000000000000000 ) ) ;
#668 = EDGE_CURVE ( 'NONE', #887, #122, #399, .T. ) ;
#669 = DIRECTION ( 'NONE',  ( 1.000000000000000000, -1.807003620809174600E-016, 0.0000000000000000000 ) ) ;
#670 = COLOUR_RGB ( '',0.7686274509803920900, 0.7686274509803920900, 0.7686274509803920900 ) ;
#671 = COLOUR_RGB ( '',0.7686274509803920900, 0.7686274509803920900, 0.7686274509803920900 ) ;
#672 = LINE ( 'NONE', #980, #522 ) ;
#673 = PRESENTATION_LAYER_ASSIGNMENT (  '', '', ( #889 ) ) ;
#674 = DIRECTION ( 'NONE',  ( 1.000000000000000000, 0.0000000000000000000, 0.0000000000000000000 ) ) ;
#675 = VERTEX_POINT ( 'NONE', #788 ) ;
#676 =( LENGTH_UNIT ( ) NAMED_UNIT ( * ) SI_UNIT ( .MILLI., .METRE. ) );
#677 = VERTEX_POINT ( 'NONE', #548 ) ;
#678 = ORIENTED_EDGE ( 'NONE', *, *, #640, .F. ) ;
#679 = CARTESIAN_POINT ( 'NONE',  ( 0.0000000000000000000, 0.0000000000000000000, 0.2600000000000000100 ) ) ;
#680 = DIRECTION ( 'NONE',  ( -0.0000000000000000000, -0.0000000000000000000, -1.000000000000000000 ) ) ;
#681 = CARTESIAN_POINT ( 'NONE',  ( 0.4999999999999997800, -0.8000000000000000400, -0.2600000000000000100 ) ) ;
#682 = VECTOR ( 'NONE', #964, 1000.000000000000000 ) ;
#683 = CARTESIAN_POINT ( 'NONE',  ( -1.100000000000000300, 0.5999999999999999800, 0.2600000000000000100 ) ) ;
#684 = EDGE_CURVE ( 'NONE', #854, #712, #616, .T. ) ;
#685 = LINE ( 'NONE', #749, #899 ) ;
#686 = FILL_AREA_STYLE ('',( #363 ) ) ;
#687 = FILL_AREA_STYLE_COLOUR ( '', #671 ) ;
#688 = VERTEX_POINT ( 'NONE', #862 ) ;
#689 = DIRECTION ( 'NONE',  ( 1.355252715606880500E-016, 1.000000000000000000, -0.0000000000000000000 ) ) ;
#690 = CARTESIAN_POINT ( 'NONE',  ( -1.100000000000000300, 0.5999999999999999800, 0.2500000000000000000 ) ) ;
#691 = DIRECTION ( 'NONE',  ( -0.0000000000000000000, -0.0000000000000000000, -1.000000000000000000 ) ) ;
#692 = PRESENTATION_STYLE_ASSIGNMENT (( #330 ) ) ;
#693 = FACE_OUTER_BOUND ( 'NONE', #515, .T. ) ;
#694 = STYLED_ITEM ( 'NONE', ( #556 ), #545 ) ;
#695 = LINE ( 'NONE', #690, #82 ) ;
#696 = DIRECTION ( 'NONE',  ( 1.000000000000000000, 1.807003620809174100E-016, 0.0000000000000000000 ) ) ;
#697 = VECTOR ( 'NONE', #696, 1000.000000000000000 ) ;
#698 = FILL_AREA_STYLE_COLOUR ( '', #131 ) ;
#699 = VERTEX_POINT ( 'NONE', #94 ) ;
#700 = ORIENTED_EDGE ( 'NONE', *, *, #978, .F. ) ;
#701 = CARTESIAN_POINT ( 'NONE',  ( -0.5000000000000002200, -0.7999999999999999300, -0.2600000000000000100 ) ) ;
#702 = PRESENTATION_LAYER_ASSIGNMENT (  '', '', ( #497 ) ) ;
#703 = EDGE_CURVE ( 'NONE', #854, #122, #762, .T. ) ;
#704 = VECTOR ( 'NONE', #255, 1000.000000000000000 ) ;
#705 = LINE ( 'NONE', #701, #280 ) ;
#706 = FILL_AREA_STYLE_COLOUR ( '', #113 ) ;
#707 = PRESENTATION_STYLE_ASSIGNMENT (( #305 ) ) ;
#708 = AXIS2_PLACEMENT_3D ( 'NONE', #755, #459, #160 ) ;
#709 = CARTESIAN_POINT ( 'NONE',  ( -1.600000000000000500, -0.8000000000000000400, 0.2600000000000000100 ) ) ;
#710 =( NAMED_UNIT ( * ) SI_UNIT ( $, .STERADIAN. ) SOLID_ANGLE_UNIT ( ) );
#711 = UNCERTAINTY_MEASURE_WITH_UNIT (LENGTH_MEASURE( 1.000000000000000100E-005 ), #581, 'distance_accuracy_value', 'NONE');
#712 = VERTEX_POINT ( 'NONE', #941 ) ;
#713 = PLANE ( 'NONE',  #358 ) ;
#714 = PLANE ( 'NONE',  #974 ) ;
#715 = SURFACE_SIDE_STYLE ('',( #895 ) ) ;
#716 = CARTESIAN_POINT ( 'NONE',  ( -0.5000000000000003300, 0.5999999999999998700, 0.2600000000000000100 ) ) ;
#717 = VECTOR ( 'NONE', #659, 1000.000000000000000 ) ;
#718 = EDGE_CURVE ( 'NONE', #778, #960, #695, .T. ) ;
#719 = DIRECTION ( 'NONE',  ( -0.0000000000000000000, 1.000000000000000000, -0.0000000000000000000 ) ) ;
#720 = FILL_AREA_STYLE ('',( #706 ) ) ;
#721 = EDGE_LOOP ( 'NONE', ( #780, #388, #700, #818 ) ) ;
#722 =( LENGTH_UNIT ( ) NAMED_UNIT ( * ) SI_UNIT ( .MILLI., .METRE. ) );
#723 = ORIENTED_EDGE ( 'NONE', *, *, #217, .T. ) ;
#724 = DIRECTION ( 'NONE',  ( -0.0000000000000000000, -0.0000000000000000000, 1.000000000000000000 ) ) ;
#725 = ORIENTED_EDGE ( 'NONE', *, *, #965, .T. ) ;
#726 =( LENGTH_UNIT ( ) NAMED_UNIT ( * ) SI_UNIT ( .MILLI., .METRE. ) );
#727 = CARTESIAN_POINT ( 'NONE',  ( 0.5000000000000000000, 0.8000000000000000400, -0.2600000000000000100 ) ) ;
#728 = FACE_OUTER_BOUND ( 'NONE', #89, .T. ) ;
#729 = ADVANCED_FACE ( 'NONE', ( #734 ), #635, .F. ) ;
#730 =( NAMED_UNIT ( * ) SI_UNIT ( $, .STERADIAN. ) SOLID_ANGLE_UNIT ( ) );
#731 = VECTOR ( 'NONE', #807, 1000.000000000000000 ) ;
#732 = FACE_OUTER_BOUND ( 'NONE', #564, .T. ) ;
#733 = DIRECTION ( 'NONE',  ( 1.000000000000000000, -1.084202172485504400E-016, -0.0000000000000000000 ) ) ;
#734 = FACE_OUTER_BOUND ( 'NONE', #621, .T. ) ;
#735 = SURFACE_STYLE_FILL_AREA ( #153 ) ;
#736 = FILL_AREA_STYLE_COLOUR ( '', #382 ) ;
#737 =( GEOMETRIC_REPRESENTATION_CONTEXT ( 3 ) GLOBAL_UNCERTAINTY_ASSIGNED_CONTEXT ( ( #230 ) ) GLOBAL_UNIT_ASSIGNED_CONTEXT ( ( #268, #808, #710 ) ) REPRESENTATION_CONTEXT ( 'NONE', 'WORKASPACE' ) );
#738 = ORIENTED_EDGE ( 'NONE', *, *, #27, .F. ) ;
#739 =( NAMED_UNIT ( * ) PLANE_ANGLE_UNIT ( ) SI_UNIT ( $, .RADIAN. ) );
#740 = EDGE_CURVE ( 'NONE', #29, #840, #705, .T. ) ;
#741 =( NAMED_UNIT ( * ) SI_UNIT ( $, .STERADIAN. ) SOLID_ANGLE_UNIT ( ) );
#742 = CARTESIAN_POINT ( 'NONE',  ( -1.600000000000000500, 0.8000000000000000400, 0.2500000000000000000 ) ) ;
#743 = EDGE_CURVE ( 'NONE', #61, #699, #787, .T. ) ;
#744 =( NAMED_UNIT ( * ) SI_UNIT ( $, .STERADIAN. ) SOLID_ANGLE_UNIT ( ) );
#745 = FACE_OUTER_BOUND ( 'NONE', #514, .T. ) ;
#746 = LINE ( 'NONE', #656, #682 ) ;
#747 = DIRECTION ( 'NONE',  ( -0.0000000000000000000, 1.000000000000000000, -0.0000000000000000000 ) ) ;
#748 = SURFACE_STYLE_FILL_AREA ( #686 ) ;
#749 = CARTESIAN_POINT ( 'NONE',  ( -1.100000000000000300, -0.5999999999999999800, 0.2600000000000000100 ) ) ;
#750 = ORIENTED_EDGE ( 'NONE', *, *, #684, .F. ) ;
#751 = AXIS2_PLACEMENT_3D ( 'NONE', #67, #821, #509 ) ;
#752 = ORIENTED_EDGE ( 'NONE', *, *, #718, .F. ) ;
#753 = VERTEX_POINT ( 'NONE', #625 ) ;
#754 = DIRECTION ( 'NONE',  ( 1.000000000000000000, 8.131516293641275400E-016, 0.0000000000000000000 ) ) ;
#755 = CARTESIAN_POINT ( 'NONE',  ( 0.0000000000000000000, 0.0000000000000000000, -0.2500000000000000000 ) ) ;
#756 = PRODUCT_DEFINITION ( 'UNKNOWN', '', #180, #537 ) ;
#757 = PLANE ( 'NONE',  #859 ) ;
#758 = EDGE_CURVE ( 'NONE', #675, #840, #833, .T. ) ;
#759 = UNCERTAINTY_MEASURE_WITH_UNIT (LENGTH_MEASURE( 1.000000000000000100E-005 ), #842, 'distance_accuracy_value', 'NONE');
#760 = VECTOR ( 'NONE', #719, 1000.000000000000000 ) ;
#761 = ORIENTED_EDGE ( 'NONE', *, *, #878, .F. ) ;
#762 = LINE ( 'NONE', #23, #178 ) ;
#763 = DIRECTION ( 'NONE',  ( 0.0000000000000000000, -1.000000000000000000, 0.0000000000000000000 ) ) ;
#764 = CARTESIAN_POINT ( 'NONE',  ( -0.5000000000000000000, 0.8000000000000001600, -0.2500000000000000000 ) ) ;
#765 = SURFACE_SIDE_STYLE ('',( #951 ) ) ;
#766 = ORIENTED_EDGE ( 'NONE', *, *, #65, .F. ) ;
#767 = MECHANICAL_DESIGN_GEOMETRIC_PRESENTATION_REPRESENTATION (  '', ( #187 ), #820 ) ;
#768 = EDGE_LOOP ( 'NONE', ( #18, #826, #125, #134 ) ) ;
#769 = PLANE ( 'NONE',  #326 ) ;
#770 =( NAMED_UNIT ( * ) PLANE_ANGLE_UNIT ( ) SI_UNIT ( $, .RADIAN. ) );
#771 = FILL_AREA_STYLE ('',( #687 ) ) ;
#772 = PRODUCT_RELATED_PRODUCT_CATEGORY ( 'part', '', ( #866 ) ) ;
#773 = UNCERTAINTY_MEASURE_WITH_UNIT (LENGTH_MEASURE( 1.000000000000000100E-005 ), #676, 'distance_accuracy_value', 'NONE');
#774 = CLOSED_SHELL ( 'NONE', ( #303, #623, #248, #391, #98, #819, #240, #171, #159, #79, #629, #729, #846, #545, #311, #619, #90, #613, #775, #858, #430, #473, #87 ) ) ;
#775 = ADVANCED_FACE ( 'NONE', ( #62 ), #481, .F. ) ;
#776 = SURFACE_SIDE_STYLE ('',( #967 ) ) ;
#777 = EDGE_CURVE ( 'NONE', #242, #753, #33, .T. ) ;
#778 = VERTEX_POINT ( 'NONE', #419 ) ;
#779 = DIRECTION ( 'NONE',  ( 1.000000000000000000, 0.0000000000000000000, -0.0000000000000000000 ) ) ;
#780 = ORIENTED_EDGE ( 'NONE', *, *, #743, .T. ) ;
#781 = PRESENTATION_STYLE_ASSIGNMENT (( #423 ) ) ;
#782 =( NAMED_UNIT ( * ) SI_UNIT ( $, .STERADIAN. ) SOLID_ANGLE_UNIT ( ) );
#783 = AXIS2_PLACEMENT_3D ( 'NONE', #327, #120, #884 ) ;
#784 = DIRECTION ( 'NONE',  ( -0.0000000000000000000, -0.0000000000000000000, 1.000000000000000000 ) ) ;
#785 = FACE_OUTER_BOUND ( 'NONE', #658, .T. ) ;
#786 = PRESENTATION_LAYER_ASSIGNMENT (  '', '', ( #927 ) ) ;
#787 = LINE ( 'NONE', #179, #579 ) ;
#788 = CARTESIAN_POINT ( 'NONE',  ( -1.200000000000000400, -0.8000000000000000400, -0.2500000000000000000 ) ) ;
#789 = FACE_BOUND ( 'NONE', #71, .T. ) ;
#790 = VERTEX_POINT ( 'NONE', #415 ) ;
#791 = VERTEX_POINT ( 'NONE', #565 ) ;
#792 = PLANE ( 'NONE',  #843 ) ;
#793 = EDGE_CURVE ( 'NONE', #570, #778, #540, .T. ) ;
#794 = CARTESIAN_POINT ( 'NONE',  ( -1.200000000000000200, 0.8000000000000003800, -0.2600000000000000100 ) ) ;
#795 = LINE ( 'NONE', #275, #379 ) ;
#796 = LINE ( 'NONE', #277, #339 ) ;
#797 = EDGE_CURVE ( 'NONE', #398, #424, #925, .T. ) ;
#798 = CARTESIAN_POINT ( 'NONE',  ( 1.200000000000000200, 0.8000000000000000400, -0.2600000000000000100 ) ) ;
#799 = CARTESIAN_POINT ( 'NONE',  ( -0.5000000000000002200, -0.7999999999999999300, -0.2500000000000000000 ) ) ;
#800 = SURFACE_STYLE_FILL_AREA ( #299 ) ;
#801 = PLANE ( 'NONE',  #222 ) ;
#802 = ORIENTED_EDGE ( 'NONE', *, *, #217, .F. ) ;
#803 = CARTESIAN_POINT ( 'NONE',  ( -1.600000000000000500, -0.8000000000000000400, 0.2500000000000000000 ) ) ;
#804 = ORIENTED_EDGE ( 'NONE', *, *, #684, .T. ) ;
#805 = ORIENTED_EDGE ( 'NONE', *, *, #845, .T. ) ;
#806 = CARTESIAN_POINT ( 'NONE',  ( 1.200000000000000400, 0.8000000000000000400, 0.2600000000000000100 ) ) ;
#807 = DIRECTION ( 'NONE',  ( 1.000000000000000000, 0.0000000000000000000, 0.0000000000000000000 ) ) ;
#808 =( NAMED_UNIT ( * ) PLANE_ANGLE_UNIT ( ) SI_UNIT ( $, .RADIAN. ) );
#809 = STYLED_ITEM ( 'NONE', ( #97 ), #311 ) ;
#810 = LINE ( 'NONE', #218, #395 ) ;
#811 = CARTESIAN_POINT ( 'NONE',  ( 1.200000000000000400, 0.8000000000000000400, 0.2600000000000000100 ) ) ;
#812 = ORIENTED_EDGE ( 'NONE', *, *, #198, .T. ) ;
#813 = DIRECTION ( 'NONE',  ( -0.0000000000000000000, -0.0000000000000000000, -1.000000000000000000 ) ) ;
#814 = VECTOR ( 'NONE', #542, 1000.000000000000000 ) ;
#815 = EDGE_CURVE ( 'NONE', #468, #699, #501, .T. ) ;
#816 = LINE ( 'NONE', #551, #96 ) ;
#817 = DIRECTION ( 'NONE',  ( -0.0000000000000000000, 1.000000000000000000, -0.0000000000000000000 ) ) ;
#818 = ORIENTED_EDGE ( 'NONE', *, *, #14, .T. ) ;
#819 = ADVANCED_FACE ( 'NONE', ( #13 ), #714, .F. ) ;
#820 =( GEOMETRIC_REPRESENTATION_CONTEXT ( 3 ) GLOBAL_UNCERTAINTY_ASSIGNED_CONTEXT ( ( #580 ) ) GLOBAL_UNIT_ASSIGNED_CONTEXT ( ( #456, #474, #782 ) ) REPRESENTATION_CONTEXT ( 'NONE', 'WORKASPACE' ) );
#821 = DIRECTION ( 'NONE',  ( 0.0000000000000000000, 0.0000000000000000000, -1.000000000000000000 ) ) ;
#822 = LINE ( 'NONE', #47, #555 ) ;
#823 = VECTOR ( 'NONE', #313, 1000.000000000000000 ) ;
#824 = PLANE ( 'NONE',  #539 ) ;
#825 = VECTOR ( 'NONE', #691, 1000.000000000000000 ) ;
#826 = ORIENTED_EDGE ( 'NONE', *, *, #916, .F. ) ;
#827 = ORIENTED_EDGE ( 'NONE', *, *, #433, .T. ) ;
#828 = EDGE_CURVE ( 'NONE', #979, #970, #213, .T. ) ;
#829 = CARTESIAN_POINT ( 'NONE',  ( 0.5000000000000000000, 0.8000000000000000400, -0.2600000000000000100 ) ) ;
#830 = CARTESIAN_POINT ( 'NONE',  ( -1.600000000000000500, 0.8000000000000000400, -0.2600000000000000100 ) ) ;
#831 = PRESENTATION_STYLE_ASSIGNMENT (( #879 ) ) ;
#832 = ORIENTED_EDGE ( 'NONE', *, *, #532, .T. ) ;
#833 = LINE ( 'NONE', #164, #630 ) ;
#834 = LINE ( 'NONE', #161, #427 ) ;
#835 = MECHANICAL_DESIGN_GEOMETRIC_PRESENTATION_REPRESENTATION (  '', ( #889 ), #942 ) ;
#836 = DIRECTION ( 'NONE',  ( -0.0000000000000000000, 0.0000000000000000000, -1.000000000000000000 ) ) ;
#837 = DIRECTION ( 'NONE',  ( -1.000000000000000000, 1.355252715606880800E-016, 0.0000000000000000000 ) ) ;
#838 =( GEOMETRIC_REPRESENTATION_CONTEXT ( 3 ) GLOBAL_UNCERTAINTY_ASSIGNED_CONTEXT ( ( #155 ) ) GLOBAL_UNIT_ASSIGNED_CONTEXT ( ( #282, #586, #730 ) ) REPRESENTATION_CONTEXT ( 'NONE', 'WORKASPACE' ) );
#839 = DIRECTION ( 'NONE',  ( -1.355252715606880500E-016, -1.000000000000000000, 0.0000000000000000000 ) ) ;
#840 = VERTEX_POINT ( 'NONE', #799 ) ;
#841 = CARTESIAN_POINT ( 'NONE',  ( -1.100000000000000300, 0.5999999999999999800, 0.2600000000000000100 ) ) ;
#842 =( LENGTH_UNIT ( ) NAMED_UNIT ( * ) SI_UNIT ( .MILLI., .METRE. ) );
#843 = AXIS2_PLACEMENT_3D ( 'NONE', #429, #886, #437 ) ;
#844 = CARTESIAN_POINT ( 'NONE',  ( 1.600000000000000100, -0.8000000000000000400, 0.2500000000000000000 ) ) ;
#845 = EDGE_CURVE ( 'NONE', #570, #940, #320, .T. ) ;
#846 = ADVANCED_FACE ( 'NONE', ( #728 ), #112, .F. ) ;
#847 = ORIENTED_EDGE ( 'NONE', *, *, #793, .T. ) ;
#848 = DIRECTION ( 'NONE',  ( -1.000000000000000000, 0.0000000000000000000, 0.0000000000000000000 ) ) ;
#849 = SURFACE_STYLE_FILL_AREA ( #259 ) ;
#850 = VECTOR ( 'NONE', #839, 1000.000000000000000 ) ;
#851 = EDGE_CURVE ( 'NONE', #145, #424, #80, .T. ) ;
#852 = CARTESIAN_POINT ( 'NONE',  ( -0.5000000000000003300, 0.5999999999999998700, 0.2600000000000000100 ) ) ;
#853 = DIRECTION ( 'NONE',  ( -0.0000000000000000000, -0.0000000000000000000, 1.000000000000000000 ) ) ;
#854 = VERTEX_POINT ( 'NONE', #794 ) ;
#855 = ORIENTED_EDGE ( 'NONE', *, *, #265, .T. ) ;
#856 = CARTESIAN_POINT ( 'NONE',  ( 1.600000000000000100, 0.8000000000000000400, -0.2600000000000000100 ) ) ;
#857 = STYLED_ITEM ( 'NONE', ( #163 ), #159 ) ;
#858 = ADVANCED_FACE ( 'NONE', ( #867 ), #792, .F. ) ;
#859 = AXIS2_PLACEMENT_3D ( 'NONE', #829, #837, #154 ) ;
#860 = CARTESIAN_POINT ( 'NONE',  ( -1.200000000000000400, 0.8000000000000000400, 0.2500000000000000000 ) ) ;
#861 = ORIENTED_EDGE ( 'NONE', *, *, #290, .T. ) ;
#862 = CARTESIAN_POINT ( 'NONE',  ( 1.600000000000000100, 0.8000000000000000400, -0.2600000000000000100 ) ) ;
#863 = DIRECTION ( 'NONE',  ( 0.0000000000000000000, -1.000000000000000000, 0.0000000000000000000 ) ) ;
#864 = ORIENTED_EDGE ( 'NONE', *, *, #622, .T. ) ;
#865 = ORIENTED_EDGE ( 'NONE', *, *, #27, .T. ) ;
#866 = PRODUCT ( 'GWLA.01', 'GWLA.01', '', ( #211 ) ) ;
#867 = FACE_OUTER_BOUND ( 'NONE', #516, .T. ) ;
#868 = DIRECTION ( 'NONE',  ( -1.000000000000000000, 1.355252715606880800E-016, 0.0000000000000000000 ) ) ;
#869 = ORIENTED_EDGE ( 'NONE', *, *, #315, .T. ) ;
#870 = CARTESIAN_POINT ( 'NONE',  ( -1.100000000000000300, -0.5999999999999999800, 0.2600000000000000100 ) ) ;
#871 = CARTESIAN_POINT ( 'NONE',  ( -1.600000000000000500, 0.8000000000000000400, -0.2600000000000000100 ) ) ;
#872 = LINE ( 'NONE', #610, #355 ) ;
#873 = VERTEX_POINT ( 'NONE', #587 ) ;
#874 = DIRECTION ( 'NONE',  ( 1.000000000000000000, -1.355252715606880800E-016, 0.0000000000000000000 ) ) ;
#875 =( NAMED_UNIT ( * ) SI_UNIT ( $, .STERADIAN. ) SOLID_ANGLE_UNIT ( ) );
#876 = PLANE ( 'NONE',  #99 ) ;
#877 = CARTESIAN_POINT ( 'NONE',  ( -1.200000000000000200, 0.8000000000000003800, -0.2600000000000000100 ) ) ;
#878 = EDGE_CURVE ( 'NONE', #61, #19, #661, .T. ) ;
#879 = SURFACE_STYLE_USAGE ( .BOTH. , #715 ) ;
#880 = DIRECTION ( 'NONE',  ( 0.0000000000000000000, 0.0000000000000000000, 1.000000000000000000 ) ) ;
#881 = DIRECTION ( 'NONE',  ( -1.000000000000000000, -1.807003620809174600E-016, 0.0000000000000000000 ) ) ;
#882 = SURFACE_STYLE_FILL_AREA ( #771 ) ;
#883 = VECTOR ( 'NONE', #920, 1000.000000000000000 ) ;
#884 = DIRECTION ( 'NONE',  ( -1.000000000000000000, 0.0000000000000000000, 0.0000000000000000000 ) ) ;
#885 = CARTESIAN_POINT ( 'NONE',  ( -1.100000000000000300, 0.5999999999999999800, 0.2500000000000000000 ) ) ;
#886 = DIRECTION ( 'NONE',  ( -0.0000000000000000000, 0.0000000000000000000, 1.000000000000000000 ) ) ;
#887 = VERTEX_POINT ( 'NONE', #503 ) ;
#888 = VERTEX_POINT ( 'NONE', #103 ) ;
#889 = STYLED_ITEM ( 'NONE', ( #831 ), #90 ) ;
#890 = CARTESIAN_POINT ( 'NONE',  ( 1.600000000000000100, 0.8000000000000000400, 0.2600000000000000100 ) ) ;
#891 = FILL_AREA_STYLE ('',( #116 ) ) ;
#892 = STYLED_ITEM ( 'NONE', ( #333 ), #430 ) ;
#893 = CARTESIAN_POINT ( 'NONE',  ( 0.4999999999999997800, -0.8000000000000000400, -0.2600000000000000100 ) ) ;
#894 = DIRECTION ( 'NONE',  ( 1.000000000000000000, 0.0000000000000000000, 0.0000000000000000000 ) ) ;
#895 = SURFACE_STYLE_FILL_AREA ( #568 ) ;
#896 = CARTESIAN_POINT ( 'NONE',  ( -1.200000000000000400, -0.7999999999999997100, -0.2600000000000000100 ) ) ;
#897 = VECTOR ( 'NONE', #149, 1000.000000000000000 ) ;
#898 = EDGE_CURVE ( 'NONE', #145, #791, #746, .T. ) ;
#899 = VECTOR ( 'NONE', #680, 1000.000000000000000 ) ;
#900 = DIRECTION ( 'NONE',  ( 1.000000000000000000, -0.0000000000000000000, -0.0000000000000000000 ) ) ;
#901 = ORIENTED_EDGE ( 'NONE', *, *, #797, .F. ) ;
#902 = ORIENTED_EDGE ( 'NONE', *, *, #949, .T. ) ;
#903 = EDGE_CURVE ( 'NONE', #572, #19, #215, .T. ) ;
#904 = SURFACE_STYLE_FILL_AREA ( #720 ) ;
#905 = CARTESIAN_POINT ( 'NONE',  ( 1.200000000000000200, 0.8000000000000000400, -0.2600000000000000100 ) ) ;
#906 =( GEOMETRIC_REPRESENTATION_CONTEXT ( 3 ) GLOBAL_UNCERTAINTY_ASSIGNED_CONTEXT ( ( #510 ) ) GLOBAL_UNIT_ASSIGNED_CONTEXT ( ( #726, #35, #45 ) ) REPRESENTATION_CONTEXT ( 'NONE', 'WORKASPACE' ) );
#907 = CARTESIAN_POINT ( 'NONE',  ( -1.600000000000000500, -0.8000000000000000400, -0.2600000000000000100 ) ) ;
#908 = MECHANICAL_DESIGN_GEOMETRIC_PRESENTATION_REPRESENTATION (  '', ( #694 ), #546 ) ;
#909 = ORIENTED_EDGE ( 'NONE', *, *, #898, .F. ) ;
#910 = UNCERTAINTY_MEASURE_WITH_UNIT (LENGTH_MEASURE( 1.000000000000000100E-005 ), #519, 'distance_accuracy_value', 'NONE');
#911 =( NAMED_UNIT ( * ) PLANE_ANGLE_UNIT ( ) SI_UNIT ( $, .RADIAN. ) );
#912 = ORIENTED_EDGE ( 'NONE', *, *, #668, .T. ) ;
#913 = ORIENTED_EDGE ( 'NONE', *, *, #44, .F. ) ;
#914 = SURFACE_STYLE_USAGE ( .BOTH. , #362 ) ;
#915 = CARTESIAN_POINT ( 'NONE',  ( -1.600000000000000500, 0.8000000000000000400, -0.2600000000000000100 ) ) ;
#916 = EDGE_CURVE ( 'NONE', #609, #887, #822, .T. ) ;
#917 = DIRECTION ( 'NONE',  ( 0.0000000000000000000, 0.0000000000000000000, 1.000000000000000000 ) ) ;
#918 = SURFACE_STYLE_FILL_AREA ( #216 ) ;
#919 = LINE ( 'NONE', #811, #381 ) ;
#920 = DIRECTION ( 'NONE',  ( -0.0000000000000000000, 1.000000000000000000, -0.0000000000000000000 ) ) ;
#921 = ORIENTED_EDGE ( 'NONE', *, *, #947, .T. ) ;
#922 = PRESENTATION_STYLE_ASSIGNMENT (( #914 ) ) ;
#923 = COLOUR_RGB ( '',0.7686274509803920900, 0.7686274509803920900, 0.7686274509803920900 ) ;
#924 = PLANE ( 'NONE',  #708 ) ;
#925 = LINE ( 'NONE', #871, #141 ) ;
#926 = SURFACE_STYLE_USAGE ( .BOTH. , #776 ) ;
#927 = STYLED_ITEM ( 'NONE', ( #494 ), #171 ) ;
#928 = ORIENTED_EDGE ( 'NONE', *, *, #65, .T. ) ;
#929 = PLANE ( 'NONE',  #272 ) ;
#930 = ORIENTED_EDGE ( 'NONE', *, *, #554, .F. ) ;
#931 = DIRECTION ( 'NONE',  ( 1.000000000000000000, -1.355252715606880800E-016, 0.0000000000000000000 ) ) ;
#932 = CARTESIAN_POINT ( 'NONE',  ( 0.0000000000000000000, 0.0000000000000000000, -0.2600000000000000100 ) ) ;
#933 =( GEOMETRIC_REPRESENTATION_CONTEXT ( 3 ) GLOBAL_UNCERTAINTY_ASSIGNED_CONTEXT ( ( #711 ) ) GLOBAL_UNIT_ASSIGNED_CONTEXT ( ( #581, #214, #342 ) ) REPRESENTATION_CONTEXT ( 'NONE', 'WORKASPACE' ) );
#934 = VECTOR ( 'NONE', #496, 1000.000000000000000 ) ;
#935 =( LENGTH_UNIT ( ) NAMED_UNIT ( * ) SI_UNIT ( .MILLI., .METRE. ) );
#936 = FILL_AREA_STYLE_COLOUR ( '', #73 ) ;
#937 = EDGE_CURVE ( 'NONE', #57, #559, #796, .T. ) ;
#938 = LINE ( 'NONE', #443, #169 ) ;
#939 = ORIENTED_EDGE ( 'NONE', *, *, #518, .T. ) ;
#940 = VERTEX_POINT ( 'NONE', #206 ) ;
#941 = CARTESIAN_POINT ( 'NONE',  ( -1.200000000000000400, -0.7999999999999997100, -0.2600000000000000100 ) ) ;
#942 =( GEOMETRIC_REPRESENTATION_CONTEXT ( 3 ) GLOBAL_UNCERTAINTY_ASSIGNED_CONTEXT ( ( #127 ) ) GLOBAL_UNIT_ASSIGNED_CONTEXT ( ( #722, #421, #40 ) ) REPRESENTATION_CONTEXT ( 'NONE', 'WORKASPACE' ) );
#943 = FACE_OUTER_BOUND ( 'NONE', #232, .T. ) ;
#944 = STYLED_ITEM ( 'NONE', ( #314 ), #473 ) ;
#945 = LINE ( 'NONE', #681, #426 ) ;
#946 = MECHANICAL_DESIGN_GEOMETRIC_PRESENTATION_REPRESENTATION (  '', ( #380 ), #369 ) ;
#947 = EDGE_CURVE ( 'NONE', #677, #955, #234, .T. ) ;
#948 = SURFACE_SIDE_STYLE ('',( #849 ) ) ;
#949 = EDGE_CURVE ( 'NONE', #977, #294, #528, .T. ) ;
#950 = UNCERTAINTY_MEASURE_WITH_UNIT (LENGTH_MEASURE( 1.000000000000000100E-005 ), #261, 'distance_accuracy_value', 'NONE');
#951 = SURFACE_STYLE_FILL_AREA ( #601 ) ;
#952 = SURFACE_STYLE_FILL_AREA ( #452 ) ;
#953 = LINE ( 'NONE', #626, #4 ) ;
#954 = STYLED_ITEM ( 'NONE', ( #467 ), #79 ) ;
#955 = VERTEX_POINT ( 'NONE', #573 ) ;
#956 = FILL_AREA_STYLE ('',( #936 ) ) ;
#957 = EDGE_LOOP ( 'NONE', ( #374, #930, #585, #620 ) ) ;
#958 = CARTESIAN_POINT ( 'NONE',  ( -1.600000000000000500, -0.8000000000000000400, -0.2500000000000000000 ) ) ;
#959 = MECHANICAL_DESIGN_GEOMETRIC_PRESENTATION_REPRESENTATION (  '', ( #809 ), #152 ) ;
#960 = VERTEX_POINT ( 'NONE', #885 ) ;
#961 = FILL_AREA_STYLE_COLOUR ( '', #520 ) ;
#962 =( LENGTH_UNIT ( ) NAMED_UNIT ( * ) SI_UNIT ( .MILLI., .METRE. ) );
#963 = CARTESIAN_POINT ( 'NONE',  ( 0.5000000000000000000, 0.8000000000000000400, -0.2500000000000000000 ) ) ;
#964 = DIRECTION ( 'NONE',  ( 0.0000000000000000000, -1.000000000000000000, 0.0000000000000000000 ) ) ;
#965 = EDGE_CURVE ( 'NONE', #609, #979, #130, .T. ) ;
#966 = VECTOR ( 'NONE', #476, 1000.000000000000000 ) ;
#967 = SURFACE_STYLE_FILL_AREA ( #166 ) ;
#968 = DIRECTION ( 'NONE',  ( 0.0000000000000000000, -0.0000000000000000000, 1.000000000000000000 ) ) ;
#969 = LINE ( 'NONE', #709, #292 ) ;
#970 = VERTEX_POINT ( 'NONE', #963 ) ;
#971 = SURFACE_STYLE_USAGE ( .BOTH. , #491 ) ;
#972 = VECTOR ( 'NONE', #575, 1000.000000000000000 ) ;
#973 = ORIENTED_EDGE ( 'NONE', *, *, #471, .F. ) ;
#974 = AXIS2_PLACEMENT_3D ( 'NONE', #803, #569, #262 ) ;
#975 = FACE_OUTER_BOUND ( 'NONE', #488, .T. ) ;
#976 = DIRECTION ( 'NONE',  ( -0.0000000000000000000, -0.0000000000000000000, -1.000000000000000000 ) ) ;
#977 = VERTEX_POINT ( 'NONE', #338 ) ;
#978 = EDGE_CURVE ( 'NONE', #753, #57, #919, .T. ) ;
#979 = VERTEX_POINT ( 'NONE', #727 ) ;
#980 = CARTESIAN_POINT ( 'NONE',  ( 0.4999999999999997800, -0.8000000000000000400, -0.2600000000000000100 ) ) ;
ENDSEC;
END-ISO-10303-21;
